<svg width="164" height="29" viewBox="0 0 164 29" fill="none" xmlns="http://www.w3.org/2000/svg">
<path d="M14.5522 7.57296C14.5522 11.2634 11.5605 14.2551 7.87008 14.2551H1.18799V7.57296C1.18799 3.88254 4.17966 0.890869 7.87008 0.890869C11.5605 0.890869 14.5522 3.88254 14.5522 7.57296Z" fill="#749B3F"/>
<path d="M14.5522 20.9372C14.5522 17.2468 17.5439 14.2551 21.2343 14.2551H27.9164V20.9372C27.9164 24.6276 24.9248 27.6193 21.2343 27.6193C17.5439 27.6193 14.5522 24.6276 14.5522 20.9372Z" fill="#749B3F"/>
<path d="M1.18799 20.9372C1.18799 24.6276 4.17966 27.6193 7.87008 27.6193H14.5522V20.9372C14.5522 17.2468 11.5605 14.2551 7.87008 14.2551C4.17966 14.2551 1.18799 17.2468 1.18799 20.9372Z" fill="#749B3F"/>
<path d="M27.9164 7.57296C27.9164 3.88254 24.9248 0.890869 21.2343 0.890869H14.5522V7.57296C14.5522 11.2634 17.5439 14.2551 21.2343 14.2551C24.9248 14.2551 27.9164 11.2634 27.9164 7.57296Z" fill="#749B3F"/>
<path d="M36.6831 20.6071C36.5508 20.6071 36.4425 20.5648 36.3583 20.4801C36.274 20.3954 36.2319 20.2865 36.2319 20.1534V8.35665C36.2319 8.22356 36.274 8.11466 36.3583 8.02997C36.4425 7.94527 36.5508 7.90292 36.6831 7.90292H44.7326C44.865 7.90292 44.9733 7.94527 45.0575 8.02997C45.1417 8.11466 45.1838 8.22356 45.1838 8.35665V9.8993C45.1838 10.0324 45.1417 10.1413 45.0575 10.226C44.9733 10.3107 44.865 10.353 44.7326 10.353H39.0474V13.4202H44.3716C44.504 13.4202 44.6123 13.4625 44.6965 13.5472C44.7807 13.6319 44.8229 13.7408 44.8229 13.8739V15.4166C44.8229 15.5376 44.7807 15.6404 44.6965 15.7251C44.6123 15.8098 44.504 15.8521 44.3716 15.8521H39.0474V20.1534C39.0474 20.2865 39.0053 20.3954 38.9211 20.4801C38.8369 20.5648 38.7286 20.6071 38.5962 20.6071H36.6831Z" fill="#212337"/>
<path d="M46.9274 20.6071C46.8071 20.6071 46.7048 20.5648 46.6206 20.4801C46.5364 20.3954 46.4943 20.2865 46.4943 20.1534V11.6234C46.4943 11.5025 46.5364 11.3996 46.6206 11.3149C46.7048 11.2181 46.8071 11.1697 46.9274 11.1697H48.6962C48.8165 11.1697 48.9187 11.2181 49.003 11.3149C49.0992 11.3996 49.1474 11.5025 49.1474 11.6234V12.3494C49.4482 11.9743 49.8151 11.6839 50.2483 11.4783C50.6935 11.2726 51.2048 11.1697 51.7824 11.1697H52.5585C52.6788 11.1697 52.7811 11.2121 52.8653 11.2968C52.9495 11.3815 52.9916 11.4904 52.9916 11.6234V13.1843C52.9916 13.3173 52.9495 13.4262 52.8653 13.5109C52.7811 13.5956 52.6788 13.638 52.5585 13.638H50.9702C50.4408 13.638 50.0257 13.7892 49.7249 14.0917C49.4241 14.3821 49.2737 14.7995 49.2737 15.344V20.1534C49.2737 20.2865 49.2316 20.3954 49.1474 20.4801C49.0631 20.5648 48.9548 20.6071 48.8225 20.6071H46.9274Z" fill="#212337"/>
<path d="M58.0579 20.7886C56.6742 20.7886 55.5733 20.4015 54.7551 19.6271C53.949 18.8528 53.5218 17.7275 53.4737 16.2514C53.4737 16.1546 53.4737 16.0276 53.4737 15.8703C53.4737 15.7009 53.4737 15.5678 53.4737 15.471C53.5218 14.5394 53.7324 13.7408 54.1054 13.0754C54.4784 12.3978 55.0018 11.8836 55.6756 11.5327C56.3494 11.1697 57.1375 10.9882 58.0399 10.9882C59.0506 10.9882 59.8928 11.2 60.5666 11.6234C61.2525 12.0348 61.7638 12.6035 62.1007 13.3294C62.4496 14.0433 62.6241 14.866 62.6241 15.7977V16.2151C62.6241 16.3361 62.576 16.439 62.4797 16.5236C62.3955 16.6083 62.2932 16.6507 62.1729 16.6507H56.2712C56.2712 16.6628 56.2712 16.687 56.2712 16.7233C56.2712 16.7475 56.2712 16.7717 56.2712 16.7959C56.2832 17.1831 56.3554 17.54 56.4877 17.8667C56.6321 18.1812 56.8307 18.4353 57.0833 18.6289C57.348 18.8225 57.6609 18.9193 58.0218 18.9193C58.3226 18.9193 58.5693 18.877 58.7618 18.7923C58.9543 18.7076 59.1107 18.6047 59.2311 18.4837C59.3634 18.3627 59.4597 18.2599 59.5198 18.1752C59.6281 18.0542 59.7123 17.9816 59.7725 17.9574C59.8447 17.9211 59.953 17.903 60.0974 17.903H61.9744C62.0947 17.903 62.191 17.9393 62.2631 18.0119C62.3474 18.0724 62.3835 18.1631 62.3714 18.2841C62.3594 18.4777 62.2571 18.7197 62.0646 19.01C61.8841 19.2883 61.6134 19.5666 61.2525 19.8449C60.8915 20.1111 60.4403 20.3349 59.8988 20.5164C59.3694 20.6979 58.7558 20.7886 58.0579 20.7886ZM56.2712 14.9991H59.8086V14.9628C59.8086 14.5273 59.7364 14.1522 59.592 13.8376C59.4597 13.5109 59.2611 13.2568 58.9964 13.0754C58.7317 12.8939 58.4129 12.8031 58.0399 12.8031C57.6669 12.8031 57.348 12.8939 57.0833 13.0754C56.8186 13.2568 56.6141 13.5109 56.4697 13.8376C56.3373 14.1522 56.2712 14.5273 56.2712 14.9628V14.9991Z" fill="#212337"/>
<path d="M67.7671 20.7886C67.0211 20.7886 66.3774 20.7039 65.836 20.5346C65.3066 20.3531 64.8734 20.1353 64.5365 19.8812C64.2116 19.6271 63.965 19.373 63.7965 19.1189C63.6401 18.8528 63.5559 18.6289 63.5439 18.4474C63.5318 18.3143 63.5739 18.2054 63.6702 18.1208C63.7665 18.0361 63.8627 17.9937 63.959 17.9937H65.7096C65.7457 17.9937 65.7818 17.9998 65.8179 18.0119C65.854 18.024 65.8901 18.0542 65.9262 18.1026C66.0826 18.2115 66.2451 18.3385 66.4135 18.4837C66.582 18.6168 66.7745 18.7318 66.9911 18.8286C67.2197 18.9254 67.5024 18.9737 67.8393 18.9737C68.2364 18.9737 68.5733 18.8951 68.85 18.7378C69.1268 18.5684 69.2651 18.3325 69.2651 18.03C69.2651 17.8122 69.1989 17.6307 69.0666 17.4855C68.9463 17.3403 68.7116 17.2073 68.3627 17.0863C68.0138 16.9653 67.4964 16.8322 66.8106 16.687C66.1608 16.5418 65.6074 16.3482 65.1501 16.1062C64.6929 15.8642 64.35 15.5618 64.1214 15.1988C63.8928 14.8237 63.7785 14.376 63.7785 13.8558C63.7785 13.3839 63.9229 12.9302 64.2116 12.4946C64.5124 12.059 64.9516 11.7021 65.5292 11.4238C66.1067 11.1334 66.8286 10.9882 67.6949 10.9882C68.3567 10.9882 68.9342 11.0729 69.4276 11.2423C69.9329 11.3996 70.354 11.6053 70.6909 11.8594C71.0278 12.1014 71.2805 12.3555 71.449 12.6216C71.6294 12.8757 71.7257 13.0996 71.7377 13.2931C71.7498 13.4141 71.7137 13.517 71.6294 13.6017C71.5452 13.6864 71.4489 13.7287 71.3407 13.7287H69.7344C69.6742 13.7287 69.6201 13.7227 69.5719 13.7106C69.5238 13.6864 69.4817 13.6561 69.4456 13.6198C69.3012 13.523 69.1508 13.4141 68.9944 13.2931C68.85 13.1601 68.6755 13.0451 68.471 12.9483C68.2665 12.8515 68.0018 12.8031 67.6769 12.8031C67.2798 12.8031 66.973 12.8939 66.7564 13.0754C66.5519 13.2447 66.4496 13.4625 66.4496 13.7287C66.4496 13.8981 66.5038 14.0554 66.612 14.2006C66.7203 14.3458 66.9429 14.4789 67.2798 14.5999C67.6167 14.7209 68.1281 14.8479 68.8139 14.981C69.6321 15.1262 70.2818 15.344 70.7631 15.6344C71.2444 15.9247 71.5873 16.2635 71.7919 16.6507C72.0084 17.0258 72.1167 17.4311 72.1167 17.8667C72.1167 18.4353 71.9483 18.9435 71.6114 19.3912C71.2745 19.8267 70.7812 20.1716 70.1314 20.4257C69.4937 20.6676 68.7056 20.7886 67.7671 20.7886Z" fill="#212337"/>
<path d="M73.9395 20.6071C73.8071 20.6071 73.6988 20.5648 73.6146 20.4801C73.5304 20.3954 73.4883 20.2865 73.4883 20.1534V8.17516C73.4883 8.04207 73.5304 7.93317 73.6146 7.84848C73.6988 7.76378 73.8071 7.72144 73.9395 7.72144H75.8887C76.009 7.72144 76.1113 7.76378 76.1955 7.84848C76.2797 7.93317 76.3218 8.04207 76.3218 8.17516V12.2587C76.6467 11.8715 77.0437 11.563 77.513 11.3331C77.9822 11.1032 78.5478 10.9882 79.2095 10.9882C79.9194 10.9882 80.5451 11.1516 81.0865 11.4783C81.64 11.7928 82.0732 12.2587 82.386 12.8757C82.6988 13.4807 82.8552 14.2187 82.8552 15.0899V20.1534C82.8552 20.2865 82.8131 20.3954 82.7289 20.4801C82.6447 20.5648 82.5364 20.6071 82.404 20.6071H80.4368C80.3165 20.6071 80.2142 20.5648 80.13 20.4801C80.0457 20.3954 80.0036 20.2865 80.0036 20.1534V15.1988C80.0036 14.5575 79.8472 14.0614 79.5344 13.7106C79.2215 13.3476 78.7764 13.1661 78.1988 13.1661C77.6333 13.1661 77.1761 13.3476 76.8272 13.7106C76.4903 14.0614 76.3218 14.5575 76.3218 15.1988V20.1534C76.3218 20.2865 76.2797 20.3954 76.1955 20.4801C76.1113 20.5648 76.009 20.6071 75.8887 20.6071H73.9395Z" fill="#212337"/>
<path d="M88.9262 20.6071C88.7938 20.6071 88.6855 20.5648 88.6013 20.4801C88.5171 20.3954 88.475 20.2865 88.475 20.1534V8.35665C88.475 8.22356 88.5171 8.11466 88.6013 8.02997C88.6855 7.94527 88.7938 7.90292 88.9262 7.90292H90.8934C91.0258 7.90292 91.1341 7.94527 91.2183 8.02997C91.3025 8.11466 91.3446 8.22356 91.3446 8.35665V12.8939H96.2357V8.35665C96.2357 8.22356 96.2778 8.11466 96.362 8.02997C96.4462 7.94527 96.5545 7.90292 96.6869 7.90292H98.6541C98.7865 7.90292 98.8948 7.94527 98.979 8.02997C99.0632 8.11466 99.1053 8.22356 99.1053 8.35665V20.1534C99.1053 20.2865 99.0632 20.3954 98.979 20.4801C98.8948 20.5648 98.7865 20.6071 98.6541 20.6071H96.6869C96.5545 20.6071 96.4462 20.5648 96.362 20.4801C96.2778 20.3954 96.2357 20.2865 96.2357 20.1534V15.471H91.3446V20.1534C91.3446 20.2865 91.3025 20.3954 91.2183 20.4801C91.1341 20.5648 91.0258 20.6071 90.8934 20.6071H88.9262Z" fill="#212337"/>
<path d="M103.984 20.7886C103.346 20.7886 102.775 20.6676 102.269 20.4257C101.764 20.1716 101.361 19.8328 101.06 19.4093C100.759 18.9858 100.609 18.514 100.609 17.9937C100.609 17.1347 100.952 16.4571 101.638 15.961C102.335 15.465 103.25 15.1262 104.381 14.9447L106.745 14.5999V14.2732C106.745 13.8013 106.637 13.4383 106.42 13.1843C106.204 12.9302 105.825 12.8031 105.283 12.8031C104.886 12.8031 104.567 12.8818 104.327 13.0391C104.086 13.1964 103.9 13.402 103.767 13.6561C103.671 13.8134 103.533 13.8921 103.352 13.8921H101.638C101.505 13.8921 101.403 13.8558 101.331 13.7832C101.259 13.6985 101.228 13.6017 101.241 13.4928C101.241 13.2871 101.319 13.0451 101.475 12.7668C101.632 12.4885 101.872 12.2163 102.197 11.9501C102.522 11.6718 102.937 11.442 103.442 11.2605C103.948 11.079 104.567 10.9882 105.301 10.9882C106.059 10.9882 106.709 11.079 107.251 11.2605C107.792 11.442 108.225 11.696 108.55 12.0227C108.875 12.3494 109.116 12.7305 109.272 13.1661C109.428 13.5896 109.507 14.0493 109.507 14.5454V20.1534C109.507 20.2865 109.464 20.3954 109.38 20.4801C109.296 20.5648 109.188 20.6071 109.055 20.6071H107.287C107.166 20.6071 107.064 20.5648 106.98 20.4801C106.896 20.3954 106.853 20.2865 106.853 20.1534V19.4819C106.697 19.7118 106.487 19.9296 106.222 20.1353C105.957 20.3289 105.638 20.4862 105.265 20.6071C104.904 20.7281 104.477 20.7886 103.984 20.7886ZM104.706 18.9012C105.103 18.9012 105.458 18.8165 105.771 18.6471C106.083 18.4777 106.33 18.2175 106.511 17.8667C106.691 17.5158 106.781 17.0742 106.781 16.5418V16.2333L105.103 16.5055C104.453 16.6144 103.978 16.7777 103.677 16.9955C103.376 17.2133 103.226 17.4795 103.226 17.7941C103.226 18.024 103.292 18.2236 103.424 18.393C103.569 18.5624 103.755 18.6894 103.984 18.7741C104.212 18.8588 104.453 18.9012 104.706 18.9012Z" fill="#212337"/>
<path d="M111.764 20.6071C111.644 20.6071 111.541 20.5648 111.457 20.4801C111.373 20.3954 111.331 20.2865 111.331 20.1534V11.6234C111.331 11.5025 111.373 11.3996 111.457 11.3149C111.541 11.2181 111.644 11.1697 111.764 11.1697H113.533C113.653 11.1697 113.755 11.2181 113.84 11.3149C113.936 11.3996 113.984 11.5025 113.984 11.6234V12.3494C114.285 11.9743 114.652 11.6839 115.085 11.4783C115.53 11.2726 116.041 11.1697 116.619 11.1697H117.395C117.515 11.1697 117.618 11.2121 117.702 11.2968C117.786 11.3815 117.828 11.4904 117.828 11.6234V13.1843C117.828 13.3173 117.786 13.4262 117.702 13.5109C117.618 13.5956 117.515 13.638 117.395 13.638H115.807C115.277 13.638 114.862 13.7892 114.561 14.0917C114.261 14.3821 114.11 14.7995 114.11 15.344V20.1534C114.11 20.2865 114.068 20.3954 113.984 20.4801C113.9 20.5648 113.791 20.6071 113.659 20.6071H111.764Z" fill="#212337"/>
<path d="M122.134 20.6071C121.953 20.6071 121.815 20.5648 121.719 20.4801C121.635 20.3833 121.562 20.2744 121.502 20.1534L118.109 11.7323C118.085 11.6839 118.073 11.6295 118.073 11.569C118.073 11.4601 118.109 11.3694 118.181 11.2968C118.266 11.2121 118.362 11.1697 118.47 11.1697H120.221C120.377 11.1697 120.492 11.2121 120.564 11.2968C120.648 11.3815 120.702 11.4601 120.726 11.5327L122.946 17.5218L125.166 11.5327C125.202 11.4601 125.256 11.3815 125.328 11.2968C125.413 11.2121 125.527 11.1697 125.671 11.1697H127.422C127.53 11.1697 127.621 11.2121 127.693 11.2968C127.777 11.3694 127.819 11.4601 127.819 11.569C127.819 11.6295 127.813 11.6839 127.801 11.7323L124.39 20.1534C124.342 20.2744 124.27 20.3833 124.173 20.4801C124.077 20.5648 123.939 20.6071 123.758 20.6071H122.134Z" fill="#212337"/>
<path d="M132.827 20.7886C131.443 20.7886 130.342 20.4015 129.524 19.6271C128.718 18.8528 128.291 17.7275 128.242 16.2514C128.242 16.1546 128.242 16.0276 128.242 15.8703C128.242 15.7009 128.242 15.5678 128.242 15.471C128.291 14.5394 128.501 13.7408 128.874 13.0754C129.247 12.3978 129.77 11.8836 130.444 11.5327C131.118 11.1697 131.906 10.9882 132.809 10.9882C133.819 10.9882 134.662 11.2 135.335 11.6234C136.021 12.0348 136.533 12.6035 136.869 13.3294C137.218 14.0433 137.393 14.866 137.393 15.7977V16.2151C137.393 16.3361 137.345 16.439 137.248 16.5236C137.164 16.6083 137.062 16.6507 136.942 16.6507H131.04C131.04 16.6628 131.04 16.687 131.04 16.7233C131.04 16.7475 131.04 16.7717 131.04 16.7959C131.052 17.1831 131.124 17.54 131.256 17.8667C131.401 18.1812 131.599 18.4353 131.852 18.6289C132.117 18.8225 132.43 18.9193 132.791 18.9193C133.091 18.9193 133.338 18.877 133.53 18.7923C133.723 18.7076 133.879 18.6047 134 18.4837C134.132 18.3627 134.228 18.2599 134.289 18.1752C134.397 18.0542 134.481 17.9816 134.541 17.9574C134.613 17.9211 134.722 17.903 134.866 17.903H136.743C136.863 17.903 136.96 17.9393 137.032 18.0119C137.116 18.0724 137.152 18.1631 137.14 18.2841C137.128 18.4777 137.026 18.7197 136.833 19.01C136.653 19.2883 136.382 19.5666 136.021 19.8449C135.66 20.1111 135.209 20.3349 134.668 20.5164C134.138 20.6979 133.524 20.7886 132.827 20.7886ZM131.04 14.9991H134.577V14.9628C134.577 14.5273 134.505 14.1522 134.361 13.8376C134.228 13.5109 134.03 13.2568 133.765 13.0754C133.5 12.8939 133.182 12.8031 132.809 12.8031C132.436 12.8031 132.117 12.8939 131.852 13.0754C131.587 13.2568 131.383 13.5109 131.238 13.8376C131.106 14.1522 131.04 14.5273 131.04 14.9628V14.9991Z" fill="#212337"/>
<path d="M142.536 20.7886C141.79 20.7886 141.146 20.7039 140.605 20.5346C140.075 20.3531 139.642 20.1353 139.305 19.8812C138.98 19.6271 138.734 19.373 138.565 19.1189C138.409 18.8528 138.325 18.6289 138.313 18.4474C138.301 18.3143 138.343 18.2054 138.439 18.1208C138.535 18.0361 138.631 17.9937 138.728 17.9937H140.478C140.514 17.9937 140.551 17.9998 140.587 18.0119C140.623 18.024 140.659 18.0542 140.695 18.1026C140.851 18.2115 141.014 18.3385 141.182 18.4837C141.351 18.6168 141.543 18.7318 141.76 18.8286C141.988 18.9254 142.271 18.9737 142.608 18.9737C143.005 18.9737 143.342 18.8951 143.619 18.7378C143.895 18.5684 144.034 18.3325 144.034 18.03C144.034 17.8122 143.968 17.6307 143.835 17.4855C143.715 17.3403 143.48 17.2073 143.131 17.0863C142.782 16.9653 142.265 16.8322 141.579 16.687C140.93 16.5418 140.376 16.3482 139.919 16.1062C139.462 15.8642 139.119 15.5618 138.89 15.1988C138.661 14.8237 138.547 14.376 138.547 13.8558C138.547 13.3839 138.692 12.9302 138.98 12.4946C139.281 12.059 139.72 11.7021 140.298 11.4238C140.875 11.1334 141.597 10.9882 142.464 10.9882C143.125 10.9882 143.703 11.0729 144.196 11.2423C144.702 11.3996 145.123 11.6053 145.46 11.8594C145.797 12.1014 146.049 12.3555 146.218 12.6216C146.398 12.8757 146.494 13.0996 146.506 13.2931C146.518 13.4141 146.482 13.517 146.398 13.6017C146.314 13.6864 146.218 13.7287 146.109 13.7287H144.503C144.443 13.7287 144.389 13.7227 144.341 13.7106C144.293 13.6864 144.25 13.6561 144.214 13.6198C144.07 13.523 143.92 13.4141 143.763 13.2931C143.619 13.1601 143.444 13.0451 143.24 12.9483C143.035 12.8515 142.77 12.8031 142.446 12.8031C142.049 12.8031 141.742 12.8939 141.525 13.0754C141.321 13.2447 141.218 13.4625 141.218 13.7287C141.218 13.8981 141.272 14.0554 141.381 14.2006C141.489 14.3458 141.712 14.4789 142.049 14.5999C142.385 14.7209 142.897 14.8479 143.583 14.981C144.401 15.1262 145.051 15.344 145.532 15.6344C146.013 15.9247 146.356 16.2635 146.561 16.6507C146.777 17.0258 146.885 17.4311 146.885 17.8667C146.885 18.4353 146.717 18.9435 146.38 19.3912C146.043 19.8267 145.55 20.1716 144.9 20.4257C144.262 20.6676 143.474 20.7886 142.536 20.7886Z" fill="#212337"/>
<path d="M152.734 20.6071C151.988 20.6071 151.35 20.4862 150.821 20.2442C150.291 19.9901 149.888 19.6029 149.611 19.0826C149.347 18.5624 149.214 17.909 149.214 17.1226V13.3113H147.807C147.674 13.3113 147.566 13.2689 147.482 13.1843C147.397 13.0996 147.355 12.9907 147.355 12.8576V11.6234C147.355 11.4904 147.397 11.3815 147.482 11.2968C147.566 11.2121 147.674 11.1697 147.807 11.1697H149.214V8.17516C149.214 8.04207 149.256 7.93317 149.341 7.84848C149.437 7.76378 149.545 7.72144 149.666 7.72144H151.434C151.567 7.72144 151.675 7.76378 151.759 7.84848C151.843 7.93317 151.885 8.04207 151.885 8.17516V11.1697H154.141C154.262 11.1697 154.364 11.2121 154.448 11.2968C154.533 11.3815 154.575 11.4904 154.575 11.6234V12.8576C154.575 12.9907 154.533 13.0996 154.448 13.1843C154.364 13.2689 154.262 13.3113 154.141 13.3113H151.885V16.9048C151.885 17.3645 151.964 17.7275 152.12 17.9937C152.289 18.2478 152.577 18.3748 152.986 18.3748H154.304C154.424 18.3748 154.527 18.4172 154.611 18.5019C154.695 18.5866 154.737 18.6894 154.737 18.8104V20.1534C154.737 20.2865 154.695 20.3954 154.611 20.4801C154.527 20.5648 154.424 20.6071 154.304 20.6071H152.734Z" fill="#212337"/>
<path d="M159.651 20.7886C158.905 20.7886 158.261 20.7039 157.719 20.5346C157.19 20.3531 156.757 20.1353 156.42 19.8812C156.095 19.6271 155.848 19.373 155.68 19.1189C155.524 18.8528 155.439 18.6289 155.427 18.4474C155.415 18.3143 155.457 18.2054 155.554 18.1208C155.65 18.0361 155.746 17.9937 155.842 17.9937H157.593C157.629 17.9937 157.665 17.9998 157.701 18.0119C157.737 18.024 157.774 18.0542 157.81 18.1026C157.966 18.2115 158.128 18.3385 158.297 18.4837C158.465 18.6168 158.658 18.7318 158.874 18.8286C159.103 18.9254 159.386 18.9737 159.723 18.9737C160.12 18.9737 160.457 18.8951 160.733 18.7378C161.01 18.5684 161.149 18.3325 161.149 18.03C161.149 17.8122 161.082 17.6307 160.95 17.4855C160.83 17.3403 160.595 17.2073 160.246 17.0863C159.897 16.9653 159.38 16.8322 158.694 16.687C158.044 16.5418 157.491 16.3482 157.034 16.1062C156.576 15.8642 156.233 15.5618 156.005 15.1988C155.776 14.8237 155.662 14.376 155.662 13.8558C155.662 13.3839 155.806 12.9302 156.095 12.4946C156.396 12.059 156.835 11.7021 157.413 11.4238C157.99 11.1334 158.712 10.9882 159.578 10.9882C160.24 10.9882 160.818 11.0729 161.311 11.2423C161.816 11.3996 162.237 11.6053 162.574 11.8594C162.911 12.1014 163.164 12.3555 163.332 12.6216C163.513 12.8757 163.609 13.0996 163.621 13.2931C163.633 13.4141 163.597 13.517 163.513 13.6017C163.429 13.6864 163.332 13.7287 163.224 13.7287H161.618C161.558 13.7287 161.503 13.7227 161.455 13.7106C161.407 13.6864 161.365 13.6561 161.329 13.6198C161.185 13.523 161.034 13.4141 160.878 13.2931C160.733 13.1601 160.559 13.0451 160.354 12.9483C160.15 12.8515 159.885 12.8031 159.56 12.8031C159.163 12.8031 158.856 12.8939 158.64 13.0754C158.435 13.2447 158.333 13.4625 158.333 13.7287C158.333 13.8981 158.387 14.0554 158.495 14.2006C158.604 14.3458 158.826 14.4789 159.163 14.5999C159.5 14.7209 160.012 14.8479 160.697 14.981C161.516 15.1262 162.165 15.344 162.647 15.6344C163.128 15.9247 163.471 16.2635 163.675 16.6507C163.892 17.0258 164 17.4311 164 17.8667C164 18.4353 163.832 18.9435 163.495 19.3912C163.158 19.8267 162.665 20.1716 162.015 20.4257C161.377 20.6676 160.589 20.7886 159.651 20.7886Z" fill="#212337"/>
</svg>
