<svg width="57" height="57" viewBox="0 0 57 57" fill="none" xmlns="http://www.w3.org/2000/svg">
<mask id="mask0_3594_9458" style="mask-type:luminance" maskUnits="userSpaceOnUse" x="4" y="1" width="20" height="33">
<path d="M23.9019 4.40771L22.142 33.7353L4.99301 30.3284L6.75284 1.00088L23.9019 4.40771Z" fill="white"/>
</mask>
<g mask="url(#mask0_3594_9458)">
<mask id="mask1_3594_9458" style="mask-type:luminance" maskUnits="userSpaceOnUse" x="-4" y="4" width="68" height="54">
<path d="M14.7681 4.24594L63.6909 38.0654L45.4819 57.0749L-3.44092 23.2554L14.7681 4.24594Z" fill="white"/>
</mask>
<g mask="url(#mask1_3594_9458)">
<mask id="mask2_3594_9458" style="mask-type:luminance" maskUnits="userSpaceOnUse" x="-4" y="4" width="68" height="53">
<path d="M14.5178 4.89491L63.8484 39.4194L45.7331 56.4259L-3.59738 21.9014L14.5178 4.89491Z" fill="white"/>
</mask>
<g mask="url(#mask2_3594_9458)">
<path d="M14.4837 25.0828C14.0889 25.3427 13.5904 25.5741 13.8552 26.2581C13.9781 26.5704 13.6656 26.6399 13.4895 26.7584C12.5579 27.3863 11.6263 28.0112 10.7675 28.7103C10.3445 29.0574 9.84503 28.846 9.29216 28.4858C8.61258 28.0363 7.9985 27.5123 7.48676 26.9385C6.13207 25.4429 5.69387 23.981 5.3362 22.4931C5.21447 22.0285 5.35034 21.6255 5.70238 21.3886C7.18468 20.3599 7.44857 18.5979 8.2869 17.1785C9.12524 15.759 9.88512 14.3069 10.8257 12.9592C12.0178 11.2535 13.0828 9.47089 14.0492 7.63024C14.4919 6.73211 15.1192 5.94275 15.9096 5.27983C16.5134 4.80032 17.1307 4.99832 18.0019 5.47791C20.057 6.60436 21.1286 8.16687 21.8682 9.75496C22.2145 10.5006 23.1157 11.5542 22.6687 11.9866C22.1651 12.478 22.1203 13.1483 21.7621 13.6729C20.542 15.4595 19.3504 17.2682 18.2204 19.11C17.8643 19.6976 17.3605 20.1951 16.9556 20.7383C16.2074 21.7456 15.9283 22.9946 15.2503 24.0287C15.0362 24.3929 14.6703 24.6657 14.4837 25.0828Z" fill="#FF6A1A"/>
</g>
</g>
</g>
<mask id="mask3_3594_9458" style="mask-type:luminance" maskUnits="userSpaceOnUse" x="21" y="14" width="24" height="28">
<path d="M44.5171 19.0593L43.1764 41.6049L21.7412 37.3084L23.0819 14.7628L44.5171 19.0593Z" fill="white"/>
</mask>
<g mask="url(#mask3_3594_9458)">
<mask id="mask4_3594_9458" style="mask-type:luminance" maskUnits="userSpaceOnUse" x="-4" y="4" width="68" height="54">
<path d="M14.7685 4.24496L63.6914 38.0644L45.4824 57.0739L-3.44043 23.2544L14.7685 4.24496Z" fill="white"/>
</mask>
<g mask="url(#mask4_3594_9458)">
<mask id="mask5_3594_9458" style="mask-type:luminance" maskUnits="userSpaceOnUse" x="-4" y="4" width="68" height="53">
<path d="M14.5183 4.89381L63.8489 39.4183L45.7336 56.4248L-3.59689 21.9003L14.5183 4.89381Z" fill="white"/>
</mask>
<g mask="url(#mask5_3594_9458)">
<path d="M27.1351 35.9953C25.7082 35.735 24.989 35.0096 24.4257 33.9268C23.573 32.2985 23.1466 30.7305 22.7406 29.1487C22.6196 28.6638 22.9696 28.32 23.5558 28.3481C24.753 28.3805 24.7591 27.028 26.2806 27.5215C26.5679 26.6162 27.7193 26.4891 28.6641 26.263C29.777 25.9989 30.3196 25.2719 31.0966 24.7541C32.9679 23.506 34.8542 22.2801 36.8368 21.1346C37.0716 21.0082 37.2911 20.8652 37.4914 20.7073C38.3269 20.0001 38.7142 20.0447 40.0226 21.0422C40.2316 21.1853 40.424 21.349 40.5881 21.5267C41.7376 22.9589 42.8751 24.3959 44.0007 25.8348C44.1752 26.0535 44.4065 26.4527 44.0628 26.4106C42.8697 26.2667 43.0654 27.2042 42.5673 27.5839C41.0277 28.7689 38.9673 29.4405 37.2174 30.4097C36.2128 30.9665 34.9727 31.3457 34.0654 31.9543C32.6335 32.908 30.7192 33.2768 29.1247 34.0127C28.157 34.431 27.469 35.1167 27.1351 35.9953Z" fill="#FF6A1A"/>
</g>
</g>
</g>
<mask id="mask6_3594_9458" style="mask-type:luminance" maskUnits="userSpaceOnUse" x="31" y="39" width="21" height="17">
<path d="M51.9678 43.5629L51.2357 55.4823L31.3009 51.6146L32.033 39.6951L51.9678 43.5629Z" fill="white"/>
</mask>
<g mask="url(#mask6_3594_9458)">
<mask id="mask7_3594_9458" style="mask-type:luminance" maskUnits="userSpaceOnUse" x="-4" y="4" width="68" height="54">
<path d="M14.7685 4.24545L63.6914 38.0649L45.4824 57.0744L-3.44043 23.2549L14.7685 4.24545Z" fill="white"/>
</mask>
<g mask="url(#mask7_3594_9458)">
<mask id="mask8_3594_9458" style="mask-type:luminance" maskUnits="userSpaceOnUse" x="-4" y="4" width="68" height="53">
<path d="M14.5183 4.8943L63.8489 39.4188L45.7336 56.4253L-3.59689 21.9008L14.5183 4.8943Z" fill="white"/>
</mask>
<g mask="url(#mask8_3594_9458)">
<path d="M50.0717 50.1476C49.2409 50.2172 49.756 51.2308 48.6976 51.0844C47.9763 50.9956 47.2616 50.9349 46.5608 50.9047C44.5436 50.7858 42.5397 50.7156 40.5582 50.6544C39.0568 50.6101 37.5871 50.6303 36.1454 50.7113C34.5698 50.7987 33.9091 50.5399 32.8347 49.3046C31.7602 48.0719 31.7215 47.9024 32.7738 47.274C33.6697 46.7378 34.2303 46.0074 34.6228 45.189C34.7816 44.8548 35.1494 44.8182 35.5507 44.8018C39.4291 44.6597 43.3111 44.5239 47.3748 44.7912C48.1396 44.8425 48.9432 45.0606 49.7262 45.133C51.0031 45.2525 51.8716 46.0249 51.754 46.9303C51.5945 48.2009 50.9217 49.2472 50.0717 50.1476Z" fill="#FF6A1A"/>
</g>
</g>
</g>
</svg>
