<svg width="78" height="78" viewBox="0 0 78 78" fill="none" xmlns="http://www.w3.org/2000/svg">
<mask id="mask0_3594_5443" style="mask-type:luminance" maskUnits="userSpaceOnUse" x="0" y="15" width="35" height="39">
<path d="M21.1836 15.1804L34.0966 48.2437L13.5557 53.184L0.642701 20.1207L21.1836 15.1804Z" fill="white"/>
</mask>
<g mask="url(#mask0_3594_5443)">
<mask id="mask1_3594_5443" style="mask-type:luminance" maskUnits="userSpaceOnUse" x="0" y="19" width="82" height="44">
<path d="M11.0791 19.6296L81.8766 31.9748L71.5152 62.0314L0.71767 49.6863L11.0791 19.6296Z" fill="white"/>
</mask>
<g mask="url(#mask1_3594_5443)">
<mask id="mask2_3594_5443" style="mask-type:luminance" maskUnits="userSpaceOnUse" x="-1" y="20" width="84" height="42">
<path d="M11.133 20.4712L82.7374 33.3862L71.4612 61.1888L-0.143218 48.2738L11.133 20.4712Z" fill="white"/>
</mask>
<g mask="url(#mask2_3594_5443)">
<path d="M21.3147 42.6252C21.0131 43.1101 20.5831 43.616 21.2199 44.2323C21.513 44.5127 21.2051 44.7471 21.0719 44.966C20.3674 46.1261 19.6614 47.2828 19.0728 48.4842C18.7843 49.0788 18.1291 49.0996 17.34 48.9843C16.3667 48.8351 15.4275 48.5709 14.5754 48.2004C12.3316 47.2453 11.1107 45.8634 9.96495 44.4124C9.59617 43.9644 9.54127 43.4536 9.80769 43.0157C10.9137 41.1374 10.3113 39.0713 10.5128 37.0902C10.7142 35.1091 10.8131 33.1319 11.163 31.1778C11.6079 28.7038 11.8742 26.2098 12.0031 23.7019C12.0342 22.4928 12.3231 21.3096 12.8549 20.1826C13.2747 19.3512 14.0524 19.2561 15.2514 19.3414C18.0769 19.5373 20.0439 20.709 21.6595 22.0768C22.4171 22.7195 23.9393 23.4192 23.6677 24.1197C23.3638 24.9134 23.6539 25.6713 23.5265 26.4279C23.0919 29.0049 22.6997 31.5915 22.392 34.1834C22.2986 35.0081 21.9976 35.8086 21.8283 36.6093C21.5171 38.0927 21.843 39.6039 21.6225 41.0812C21.5719 41.589 21.3084 42.0733 21.3147 42.6252Z" fill="#FF6A1A"/>
</g>
</g>
</g>
<mask id="mask3_3594_5443" style="mask-type:luminance" maskUnits="userSpaceOnUse" x="25" y="20" width="37" height="33">
<path d="M51.2158 20.8215L61.1555 46.2318L35.4621 52.3645L25.5224 26.9543L51.2158 20.8215Z" fill="white"/>
</mask>
<g mask="url(#mask3_3594_5443)">
<mask id="mask4_3594_5443" style="mask-type:luminance" maskUnits="userSpaceOnUse" x="0" y="19" width="82" height="44">
<path d="M11.0786 19.6284L81.8761 31.9736L71.5147 62.0302L0.717182 49.6851L11.0786 19.6284Z" fill="white"/>
</mask>
<g mask="url(#mask4_3594_5443)">
<mask id="mask5_3594_5443" style="mask-type:luminance" maskUnits="userSpaceOnUse" x="-1" y="20" width="84" height="42">
<path d="M11.1335 20.47L82.7379 33.3849L71.4617 61.1876L-0.14273 48.2726L11.1335 20.47Z" fill="white"/>
</mask>
<g mask="url(#mask5_3594_5443)">
<path d="M40.7149 48.1903C39.0173 48.6264 37.8609 48.1946 36.6947 47.2919C34.9349 45.9375 33.6734 44.4335 32.4273 42.9042C32.0491 42.4335 32.2591 41.8795 32.9167 41.6139C34.2469 41.044 33.5691 39.5577 35.4886 39.3296C35.3457 38.1915 36.545 37.4698 37.4674 36.7441C38.555 35.8917 38.7825 34.8201 39.3731 33.8593C40.795 31.5442 42.2447 29.246 43.8407 26.9872C44.0344 26.7298 44.203 26.4621 44.3428 26.1876C44.9018 24.9896 45.3493 24.8426 47.2901 25.2749C47.5919 25.3261 47.8858 25.4084 48.1558 25.5203C50.1422 26.5096 52.1178 27.5103 54.0812 28.5191C54.3833 28.6707 54.8392 28.9915 54.4408 29.1192C53.0587 29.5647 53.7478 30.4939 53.3934 31.1621C52.3035 33.2402 50.3823 35.0186 48.9525 36.9664C48.1318 38.085 46.9628 39.1279 46.2752 40.2542C45.1865 42.0241 43.2723 43.3966 41.895 45.01C41.0447 45.9581 40.6367 47.0579 40.7149 48.1903Z" fill="#FF6A1A"/>
</g>
</g>
</g>
<mask id="mask6_3594_5443" style="mask-type:luminance" maskUnits="userSpaceOnUse" x="47" y="43" width="31" height="21">
<path d="M71.792 43.9333L77.0208 57.3778L53.191 63.2215L47.9622 49.777L71.792 43.9333Z" fill="white"/>
</mask>
<g mask="url(#mask6_3594_5443)">
<mask id="mask7_3594_5443" style="mask-type:luminance" maskUnits="userSpaceOnUse" x="0" y="19" width="82" height="44">
<path d="M11.0781 19.6291L81.8756 31.9743L71.5142 62.031L0.716693 49.6858L11.0781 19.6291Z" fill="white"/>
</mask>
<g mask="url(#mask7_3594_5443)">
<mask id="mask8_3594_5443" style="mask-type:luminance" maskUnits="userSpaceOnUse" x="-1" y="20" width="84" height="42">
<path d="M11.1325 20.4707L82.7369 33.3857L71.4607 61.1883L-0.143706 48.2733L11.1325 20.4707Z" fill="white"/>
</mask>
<g mask="url(#mask8_3594_5443)">
<path d="M73.0446 52.1179C72.168 52.614 73.246 53.4648 72.0104 53.8393C71.1739 54.1064 70.3588 54.4012 69.5744 54.7222C67.3005 55.6114 65.0657 56.5472 62.8602 57.4816C61.1901 58.1918 59.5873 58.9567 58.046 59.7742C56.3611 60.6662 55.5051 60.7165 53.7012 59.9054C51.8985 59.0973 51.7702 58.9311 52.6073 57.7104C53.3192 56.6698 53.565 55.5859 53.5819 54.4905C53.5871 54.0439 53.9722 53.8178 54.4043 53.597C58.5889 51.4811 62.7805 49.3703 67.3755 47.6095C68.2408 47.2792 69.233 47.1122 70.1289 46.7958C71.5908 46.2814 72.9346 46.6891 73.2635 47.741C73.7312 49.2144 73.522 50.7014 73.0446 52.1179Z" fill="#FF6A1A"/>
</g>
</g>
</g>
</svg>
