<svg width="225" height="39" viewBox="0 0 225 39" fill="none" xmlns="http://www.w3.org/2000/svg">
<path d="M19.9062 10.3594C19.9062 15.4076 15.8139 19.5 10.7656 19.5H1.625V10.3594C1.625 5.31114 5.71739 1.21875 10.7656 1.21875C15.8139 1.21875 19.9062 5.31114 19.9062 10.3594Z" fill="#749B3F"/>
<path d="M19.9062 28.6407C19.9062 23.5925 23.9987 19.5001 29.0469 19.5001H38.1875V28.6407C38.1875 33.689 34.0951 37.7814 29.0469 37.7814C23.9987 37.7814 19.9062 33.689 19.9062 28.6407Z" fill="#749B3F"/>
<path d="M1.625 28.6407C1.625 33.689 5.71739 37.7814 10.7656 37.7814H19.9062V28.6407C19.9062 23.5925 15.8139 19.5001 10.7656 19.5001C5.71739 19.5001 1.625 23.5925 1.625 28.6407Z" fill="#749B3F"/>
<path d="M38.1875 10.3594C38.1875 5.31114 34.0951 1.21875 29.0469 1.21875H19.9062V10.3594C19.9062 15.4076 23.9987 19.5 29.0469 19.5C34.0951 19.5 38.1875 15.4076 38.1875 10.3594Z" fill="#749B3F"/>
<path d="M50.1797 28.1892C49.9987 28.1892 49.8505 28.1313 49.7353 28.0155C49.6201 27.8996 49.5625 27.7506 49.5625 27.5686V11.4314C49.5625 11.2494 49.6201 11.1004 49.7353 10.9845C49.8505 10.8687 49.9987 10.8108 50.1797 10.8108H61.1908C61.3719 10.8108 61.52 10.8687 61.6352 10.9845C61.7504 11.1004 61.808 11.2494 61.808 11.4314V13.5417C61.808 13.7237 61.7504 13.8727 61.6352 13.9885C61.52 14.1044 61.3719 14.1623 61.1908 14.1623H53.4139V18.358H60.6971C60.8781 18.358 61.0262 18.4159 61.1414 18.5318C61.2567 18.6476 61.3143 18.7966 61.3143 18.9786V21.0889C61.3143 21.2544 61.2567 21.3951 61.1414 21.5109C61.0262 21.6268 60.8781 21.6847 60.6971 21.6847H53.4139V27.5686C53.4139 27.7506 53.3563 27.8996 53.2411 28.0155C53.1259 28.1313 52.9778 28.1892 52.7967 28.1892H50.1797Z" fill="#212337"/>
<path d="M64.1932 28.1892C64.0286 28.1892 63.8887 28.1313 63.7735 28.0155C63.6583 27.8996 63.6007 27.7506 63.6007 27.5686V15.9002C63.6007 15.7347 63.6583 15.594 63.7735 15.4781C63.8887 15.3457 64.0286 15.2795 64.1932 15.2795H66.6127C66.7773 15.2795 66.9172 15.3457 67.0324 15.4781C67.164 15.594 67.2299 15.7347 67.2299 15.9002V16.8932C67.6414 16.3801 68.1434 15.9829 68.7359 15.7016C69.3449 15.4202 70.0444 15.2795 70.8344 15.2795H71.896C72.0606 15.2795 72.2005 15.3374 72.3157 15.4533C72.4309 15.5692 72.4885 15.7181 72.4885 15.9002V18.0352C72.4885 18.2173 72.4309 18.3663 72.3157 18.4821C72.2005 18.598 72.0606 18.6559 71.896 18.6559H69.7234C68.9992 18.6559 68.4314 18.8628 68.0199 19.2766C67.6084 19.6738 67.4027 20.2448 67.4027 20.9896V27.5686C67.4027 27.7506 67.3451 27.8996 67.2299 28.0155C67.1147 28.1313 66.9665 28.1892 66.7855 28.1892H64.1932Z" fill="#212337"/>
<path d="M79.4189 28.4375C77.5261 28.4375 76.0201 27.9079 74.9009 26.8486C73.7981 25.7894 73.2138 24.2501 73.148 22.2309C73.148 22.0985 73.148 21.9247 73.148 21.7095C73.148 21.4778 73.148 21.2958 73.148 21.1634C73.2138 19.8889 73.5019 18.7966 74.0121 17.8863C74.5223 16.9594 75.2383 16.256 76.16 15.776C77.0817 15.2795 78.1598 15.0312 79.3942 15.0312C80.7768 15.0312 81.9289 15.3209 82.8506 15.9002C83.7888 16.4629 84.4883 17.2408 84.9491 18.2339C85.4265 19.2104 85.6651 20.3358 85.6651 21.6102V22.1812C85.6651 22.3468 85.5993 22.4874 85.4676 22.6033C85.3524 22.7192 85.2125 22.7771 85.0479 22.7771H76.9747C76.9747 22.7936 76.9747 22.8267 76.9747 22.8764C76.9747 22.9095 76.9747 22.9426 76.9747 22.9757C76.9912 23.5053 77.0899 23.9936 77.271 24.4404C77.4685 24.8708 77.7401 25.2183 78.0857 25.4832C78.4478 25.748 78.8758 25.8804 79.3695 25.8804C79.781 25.8804 80.1184 25.8225 80.3818 25.7066C80.6451 25.5907 80.8591 25.4501 81.0237 25.2845C81.2047 25.119 81.3364 24.9784 81.4187 24.8625C81.5668 24.697 81.682 24.5977 81.7643 24.5646C81.8631 24.5149 82.0112 24.4901 82.2087 24.4901H84.7763C84.9409 24.4901 85.0726 24.5398 85.1713 24.6391C85.2866 24.7218 85.3359 24.8459 85.3195 25.0115C85.303 25.2763 85.1631 25.6073 84.8998 26.0045C84.6529 26.3852 84.2826 26.7659 83.7888 27.1465C83.295 27.5106 82.6778 27.8168 81.9371 28.0651C81.2129 28.3134 80.3735 28.4375 79.4189 28.4375ZM76.9747 20.5179H81.8137V20.4682C81.8137 19.8724 81.7149 19.3593 81.5174 18.929C81.3364 18.4821 81.0648 18.1345 80.7027 17.8863C80.3406 17.638 79.9044 17.5139 79.3942 17.5139C78.884 17.5139 78.4478 17.638 78.0857 17.8863C77.7236 18.1345 77.4438 18.4821 77.2463 18.929C77.0653 19.3593 76.9747 19.8724 76.9747 20.4682V20.5179Z" fill="#212337"/>
<path d="M92.7004 28.4375C91.6799 28.4375 90.7994 28.3216 90.0587 28.0899C89.3345 27.8417 88.742 27.5437 88.2811 27.1962C87.8367 26.8486 87.4993 26.501 87.2689 26.1535C87.0549 25.7894 86.9397 25.4832 86.9233 25.2349C86.9068 25.0528 86.9644 24.9039 87.0961 24.788C87.2278 24.6722 87.3594 24.6142 87.4911 24.6142H89.8859C89.9353 24.6142 89.9846 24.6225 90.034 24.6391C90.0834 24.6556 90.1328 24.697 90.1822 24.7632C90.3961 24.9122 90.6183 25.0859 90.8488 25.2845C91.0792 25.4666 91.3425 25.6238 91.6388 25.7562C91.9515 25.8887 92.3383 25.9549 92.7991 25.9549C93.3423 25.9549 93.8032 25.8473 94.1817 25.6321C94.5603 25.4004 94.7495 25.0777 94.7495 24.6639C94.7495 24.366 94.659 24.1177 94.478 23.9191C94.3134 23.7205 93.9924 23.5384 93.5151 23.3729C93.0378 23.2074 92.3301 23.0253 91.3919 22.8267C90.5031 22.6281 89.746 22.3633 89.1205 22.0323C88.4951 21.7013 88.026 21.2875 87.7133 20.791C87.4006 20.2779 87.2442 19.6655 87.2442 18.9538C87.2442 18.3083 87.4417 17.6877 87.8367 17.0918C88.2482 16.496 88.849 16.0078 89.639 15.6271C90.429 15.2299 91.4166 15.0312 92.6016 15.0312C93.5069 15.0312 94.2969 15.1471 94.9717 15.3788C95.663 15.594 96.2391 15.8753 96.6999 16.2229C97.1608 16.5539 97.5064 16.9015 97.7369 17.2656C97.9838 17.6132 98.1154 17.9194 98.1319 18.1842C98.1483 18.3497 98.099 18.4904 97.9837 18.6062C97.8685 18.7221 97.7369 18.78 97.5887 18.78H95.3914C95.3092 18.78 95.2351 18.7718 95.1693 18.7552C95.1034 18.7221 95.0458 18.6807 94.9964 18.6311C94.7989 18.4987 94.5932 18.3497 94.3792 18.1842C94.1817 18.0021 93.9431 17.8449 93.6632 17.7125C93.3834 17.5801 93.0213 17.5139 92.5769 17.5139C92.0338 17.5139 91.6141 17.638 91.3178 17.8863C91.038 18.118 90.8981 18.4159 90.8981 18.78C90.8981 19.0117 90.9722 19.2269 91.1203 19.4255C91.2685 19.6241 91.5729 19.8062 92.0338 19.9717C92.4947 20.1372 93.1942 20.311 94.1323 20.4931C95.2515 20.6917 96.1403 20.9896 96.7987 21.3868C97.4571 21.784 97.9261 22.2475 98.2059 22.7771C98.5022 23.2902 98.6503 23.8446 98.6503 24.4404C98.6503 25.2183 98.4199 25.9135 97.9591 26.5259C97.4982 27.1217 96.8234 27.5934 95.9346 27.941C95.0623 28.272 93.9842 28.4375 92.7004 28.4375Z" fill="#212337"/>
<path d="M101.144 28.1892C100.963 28.1892 100.815 28.1313 100.699 28.0155C100.584 27.8996 100.526 27.7506 100.526 27.5686V11.1832C100.526 11.0011 100.584 10.8521 100.699 10.7363C100.815 10.6204 100.963 10.5625 101.144 10.5625H103.81C103.975 10.5625 104.115 10.6204 104.23 10.7363C104.345 10.8521 104.403 11.0011 104.403 11.1832V16.7691C104.847 16.2395 105.39 15.8174 106.032 15.503C106.674 15.1885 107.448 15.0312 108.353 15.0312C109.324 15.0312 110.18 15.2547 110.92 15.7016C111.677 16.1319 112.27 16.7691 112.698 17.6132C113.126 18.4407 113.34 19.4503 113.34 20.642V27.5686C113.34 27.7506 113.282 27.8996 113.167 28.0155C113.052 28.1313 112.904 28.1892 112.723 28.1892H110.032C109.867 28.1892 109.727 28.1313 109.612 28.0155C109.497 27.8996 109.439 27.7506 109.439 27.5686V20.791C109.439 19.9138 109.225 19.2352 108.797 18.7552C108.369 18.2587 107.76 18.0104 106.97 18.0104C106.197 18.0104 105.571 18.2587 105.094 18.7552C104.633 19.2352 104.403 19.9138 104.403 20.791V27.5686C104.403 27.7506 104.345 27.8996 104.23 28.0155C104.115 28.1313 103.975 28.1892 103.81 28.1892H101.144Z" fill="#212337"/>
<path d="M121.644 28.1892C121.463 28.1892 121.315 28.1313 121.2 28.0155C121.085 27.8996 121.027 27.7506 121.027 27.5686V11.4314C121.027 11.2494 121.085 11.1004 121.2 10.9845C121.315 10.8687 121.463 10.8108 121.644 10.8108H124.336C124.517 10.8108 124.665 10.8687 124.78 10.9845C124.895 11.1004 124.953 11.2494 124.953 11.4314V17.638H131.643V11.4314C131.643 11.2494 131.701 11.1004 131.816 10.9845C131.931 10.8687 132.08 10.8108 132.261 10.8108H134.952C135.133 10.8108 135.281 10.8687 135.396 10.9845C135.511 11.1004 135.569 11.2494 135.569 11.4314V27.5686C135.569 27.7506 135.511 27.8996 135.396 28.0155C135.281 28.1313 135.133 28.1892 134.952 28.1892H132.261C132.08 28.1892 131.931 28.1313 131.816 28.0155C131.701 27.8996 131.643 27.7506 131.643 27.5686V21.1634H124.953V27.5686C124.953 27.7506 124.895 27.8996 124.78 28.0155C124.665 28.1313 124.517 28.1892 124.336 28.1892H121.644Z" fill="#212337"/>
<path d="M142.242 28.4375C141.37 28.4375 140.588 28.272 139.897 27.941C139.206 27.5934 138.654 27.13 138.243 26.5507C137.831 25.9714 137.626 25.3259 137.626 24.6142C137.626 23.4391 138.095 22.5123 139.033 21.8337C139.987 21.1551 141.238 20.6917 142.785 20.4434L146.02 19.9717V19.5248C146.02 18.8793 145.871 18.3828 145.575 18.0352C145.279 17.6877 144.76 17.5139 144.02 17.5139C143.477 17.5139 143.041 17.6215 142.711 17.8366C142.382 18.0518 142.127 18.3332 141.946 18.6807C141.814 18.8959 141.625 19.0035 141.378 19.0035H139.033C138.852 19.0035 138.712 18.9538 138.613 18.8545C138.514 18.7387 138.473 18.6062 138.49 18.4573C138.49 18.1759 138.597 17.8449 138.811 17.4642C139.025 17.0836 139.354 16.7112 139.798 16.347C140.242 15.9664 140.81 15.6519 141.502 15.4036C142.193 15.1554 143.041 15.0312 144.045 15.0312C145.081 15.0312 145.97 15.1554 146.711 15.4036C147.452 15.6519 148.044 15.9995 148.488 16.4464C148.933 16.8932 149.262 17.4146 149.476 18.0104C149.69 18.5897 149.797 19.2186 149.797 19.8972V27.5686C149.797 27.7506 149.739 27.8996 149.624 28.0155C149.509 28.1313 149.361 28.1892 149.18 28.1892H146.76C146.596 28.1892 146.456 28.1313 146.341 28.0155C146.225 27.8996 146.168 27.7506 146.168 27.5686V26.65C145.954 26.9645 145.666 27.2624 145.304 27.5437C144.942 27.8086 144.505 28.0237 143.995 28.1892C143.501 28.3547 142.917 28.4375 142.242 28.4375ZM143.23 25.8556C143.773 25.8556 144.259 25.7397 144.686 25.508C145.114 25.2763 145.452 24.9204 145.699 24.4404C145.946 23.9605 146.069 23.3564 146.069 22.6281V22.2061L143.773 22.5785C142.884 22.7274 142.234 22.9509 141.823 23.2488C141.411 23.5467 141.205 23.9108 141.205 24.3411C141.205 24.6556 141.296 24.9287 141.477 25.1604C141.674 25.3921 141.93 25.5659 142.242 25.6818C142.555 25.7976 142.884 25.8556 143.23 25.8556Z" fill="#212337"/>
<path d="M152.885 28.1892C152.72 28.1892 152.58 28.1313 152.465 28.0155C152.35 27.8996 152.292 27.7506 152.292 27.5686V15.9002C152.292 15.7347 152.35 15.594 152.465 15.4781C152.58 15.3457 152.72 15.2795 152.885 15.2795H155.304C155.469 15.2795 155.609 15.3457 155.724 15.4781C155.856 15.594 155.922 15.7347 155.922 15.9002V16.8932C156.333 16.3801 156.835 15.9829 157.428 15.7016C158.037 15.4202 158.736 15.2795 159.526 15.2795H160.588C160.752 15.2795 160.892 15.3374 161.008 15.4533C161.123 15.5692 161.18 15.7181 161.18 15.9002V18.0352C161.18 18.2173 161.123 18.3663 161.008 18.4821C160.892 18.598 160.752 18.6559 160.588 18.6559H158.415C157.691 18.6559 157.123 18.8628 156.712 19.2766C156.3 19.6738 156.094 20.2448 156.094 20.9896V27.5686C156.094 27.7506 156.037 27.8996 155.922 28.0155C155.806 28.1313 155.658 28.1892 155.477 28.1892H152.885Z" fill="#212337"/>
<path d="M167.07 28.1892C166.823 28.1892 166.634 28.1313 166.502 28.0155C166.387 27.883 166.288 27.7341 166.206 27.5686L161.565 16.0491C161.532 15.9829 161.515 15.9084 161.515 15.8257C161.515 15.6767 161.565 15.5526 161.663 15.4533C161.779 15.3374 161.91 15.2795 162.059 15.2795H164.453C164.667 15.2795 164.824 15.3374 164.922 15.4533C165.038 15.5692 165.112 15.6767 165.145 15.776L168.181 23.9688L171.218 15.776C171.267 15.6767 171.341 15.5692 171.44 15.4533C171.555 15.3374 171.712 15.2795 171.909 15.2795H174.304C174.452 15.2795 174.576 15.3374 174.674 15.4533C174.79 15.5526 174.847 15.6767 174.847 15.8257C174.847 15.9084 174.839 15.9829 174.823 16.0491L170.156 27.5686C170.091 27.7341 169.992 27.883 169.86 28.0155C169.728 28.1313 169.539 28.1892 169.292 28.1892H167.07Z" fill="#212337"/>
<path d="M181.697 28.4375C179.804 28.4375 178.298 27.9079 177.179 26.8486C176.076 25.7894 175.492 24.2501 175.426 22.2309C175.426 22.0985 175.426 21.9247 175.426 21.7095C175.426 21.4778 175.426 21.2958 175.426 21.1634C175.492 19.8889 175.78 18.7966 176.29 17.8863C176.801 16.9594 177.517 16.256 178.438 15.776C179.36 15.2795 180.438 15.0312 181.672 15.0312C183.055 15.0312 184.207 15.3209 185.129 15.9002C186.067 16.4629 186.767 17.2408 187.227 18.2339C187.705 19.2104 187.943 20.3358 187.943 21.6102V22.1812C187.943 22.3468 187.878 22.4874 187.746 22.6033C187.631 22.7192 187.491 22.7771 187.326 22.7771H179.253C179.253 22.7936 179.253 22.8267 179.253 22.8764C179.253 22.9095 179.253 22.9426 179.253 22.9757C179.269 23.5053 179.368 23.9936 179.549 24.4404C179.747 24.8708 180.018 25.2183 180.364 25.4832C180.726 25.748 181.154 25.8804 181.648 25.8804C182.059 25.8804 182.397 25.8225 182.66 25.7066C182.923 25.5907 183.137 25.4501 183.302 25.2845C183.483 25.119 183.615 24.9784 183.697 24.8625C183.845 24.697 183.96 24.5977 184.043 24.5646C184.141 24.5149 184.289 24.4901 184.487 24.4901H187.055C187.219 24.4901 187.351 24.5398 187.45 24.6391C187.565 24.7218 187.614 24.8459 187.598 25.0115C187.581 25.2763 187.441 25.6073 187.178 26.0045C186.931 26.3852 186.561 26.7659 186.067 27.1465C185.573 27.5106 184.956 27.8168 184.215 28.0651C183.491 28.3134 182.652 28.4375 181.697 28.4375ZM179.253 20.5179H184.092V20.4682C184.092 19.8724 183.993 19.3593 183.796 18.929C183.615 18.4821 183.343 18.1345 182.981 17.8863C182.619 17.638 182.183 17.5139 181.672 17.5139C181.162 17.5139 180.726 17.638 180.364 17.8863C180.002 18.1345 179.722 18.4821 179.525 18.929C179.343 19.3593 179.253 19.8724 179.253 20.4682V20.5179Z" fill="#212337"/>
<path d="M194.979 28.4375C193.958 28.4375 193.078 28.3216 192.337 28.0899C191.613 27.8417 191.02 27.5437 190.559 27.1962C190.115 26.8486 189.778 26.501 189.547 26.1535C189.333 25.7894 189.218 25.4832 189.201 25.2349C189.185 25.0528 189.243 24.9039 189.374 24.788C189.506 24.6722 189.638 24.6142 189.769 24.6142H192.164C192.214 24.6142 192.263 24.6225 192.312 24.6391C192.362 24.6556 192.411 24.697 192.46 24.7632C192.674 24.9122 192.897 25.0859 193.127 25.2845C193.357 25.4666 193.621 25.6238 193.917 25.7562C194.23 25.8887 194.617 25.9549 195.077 25.9549C195.621 25.9549 196.081 25.8473 196.46 25.6321C196.838 25.4004 197.028 25.0777 197.028 24.6639C197.028 24.366 196.937 24.1177 196.756 23.9191C196.592 23.7205 196.271 23.5384 195.793 23.3729C195.316 23.2074 194.608 23.0253 193.67 22.8267C192.781 22.6281 192.024 22.3633 191.399 22.0323C190.773 21.7013 190.304 21.2875 189.992 20.791C189.679 20.2779 189.522 19.6655 189.522 18.9538C189.522 18.3083 189.72 17.6877 190.115 17.0918C190.526 16.496 191.127 16.0078 191.917 15.6271C192.707 15.2299 193.695 15.0312 194.88 15.0312C195.785 15.0312 196.575 15.1471 197.25 15.3788C197.941 15.594 198.517 15.8753 198.978 16.2229C199.439 16.5539 199.785 16.9015 200.015 17.2656C200.262 17.6132 200.394 17.9194 200.41 18.1842C200.427 18.3497 200.377 18.4904 200.262 18.6062C200.147 18.7221 200.015 18.78 199.867 18.78H197.67C197.587 18.78 197.513 18.7718 197.447 18.7552C197.382 18.7221 197.324 18.6807 197.275 18.6311C197.077 18.4987 196.871 18.3497 196.657 18.1842C196.46 18.0021 196.221 17.8449 195.941 17.7125C195.662 17.5801 195.3 17.5139 194.855 17.5139C194.312 17.5139 193.892 17.638 193.596 17.8863C193.316 18.118 193.176 18.4159 193.176 18.78C193.176 19.0117 193.25 19.2269 193.399 19.4255C193.547 19.6241 193.851 19.8062 194.312 19.9717C194.773 20.1372 195.472 20.311 196.411 20.4931C197.53 20.6917 198.419 20.9896 199.077 21.3868C199.735 21.784 200.204 22.2475 200.484 22.7771C200.78 23.2902 200.929 23.8446 200.929 24.4404C200.929 25.2183 200.698 25.9135 200.237 26.5259C199.776 27.1217 199.102 27.5934 198.213 27.941C197.34 28.272 196.262 28.4375 194.979 28.4375Z" fill="#212337"/>
<path d="M208.929 28.1892C207.908 28.1892 207.036 28.0237 206.312 27.6927C205.587 27.3451 205.036 26.8155 204.658 26.1038C204.295 25.3921 204.114 24.4984 204.114 23.4226V18.209H202.189C202.008 18.209 201.859 18.1511 201.744 18.0352C201.629 17.9194 201.571 17.7704 201.571 17.5884V15.9002C201.571 15.7181 201.629 15.5692 201.744 15.4533C201.859 15.3374 202.008 15.2795 202.189 15.2795H204.114V11.1832C204.114 11.0011 204.172 10.8521 204.287 10.7363C204.419 10.6204 204.567 10.5625 204.732 10.5625H207.151C207.332 10.5625 207.48 10.6204 207.595 10.7363C207.711 10.8521 207.768 11.0011 207.768 11.1832V15.2795H210.854C211.019 15.2795 211.159 15.3374 211.274 15.4533C211.389 15.5692 211.447 15.7181 211.447 15.9002V17.5884C211.447 17.7704 211.389 17.9194 211.274 18.0352C211.159 18.1511 211.019 18.209 210.854 18.209H207.768V23.1247C207.768 23.7536 207.875 24.2501 208.089 24.6142C208.32 24.9618 208.715 25.1356 209.274 25.1356H211.077C211.241 25.1356 211.381 25.1935 211.496 25.3094C211.611 25.4252 211.669 25.5659 211.669 25.7314V27.5686C211.669 27.7506 211.611 27.8996 211.496 28.0155C211.381 28.1313 211.241 28.1892 211.077 28.1892H208.929Z" fill="#212337"/>
<path d="M218.39 28.4375C217.37 28.4375 216.489 28.3216 215.749 28.0899C215.024 27.8417 214.432 27.5437 213.971 27.1962C213.527 26.8486 213.189 26.501 212.959 26.1535C212.745 25.7894 212.63 25.4832 212.613 25.2349C212.597 25.0528 212.654 24.9039 212.786 24.788C212.918 24.6722 213.049 24.6142 213.181 24.6142H215.576C215.625 24.6142 215.675 24.6225 215.724 24.6391C215.773 24.6556 215.823 24.697 215.872 24.7632C216.086 24.9122 216.308 25.0859 216.539 25.2845C216.769 25.4666 217.032 25.6238 217.329 25.7562C217.641 25.8887 218.028 25.9549 218.489 25.9549C219.032 25.9549 219.493 25.8473 219.872 25.6321C220.25 25.4004 220.439 25.0777 220.439 24.6639C220.439 24.366 220.349 24.1177 220.168 23.9191C220.003 23.7205 219.682 23.5384 219.205 23.3729C218.728 23.2074 218.02 23.0253 217.082 22.8267C216.193 22.6281 215.436 22.3633 214.811 22.0323C214.185 21.7013 213.716 21.2875 213.403 20.791C213.091 20.2779 212.934 19.6655 212.934 18.9538C212.934 18.3083 213.132 17.6877 213.527 17.0918C213.938 16.496 214.539 16.0078 215.329 15.6271C216.119 15.2299 217.107 15.0312 218.292 15.0312C219.197 15.0312 219.987 15.1471 220.662 15.3788C221.353 15.594 221.929 15.8753 222.39 16.2229C222.851 16.5539 223.196 16.9015 223.427 17.2656C223.674 17.6132 223.805 17.9194 223.822 18.1842C223.838 18.3497 223.789 18.4904 223.674 18.6062C223.558 18.7221 223.427 18.78 223.279 18.78H221.081C220.999 18.78 220.925 18.7718 220.859 18.7552C220.793 18.7221 220.736 18.6807 220.686 18.6311C220.489 18.4987 220.283 18.3497 220.069 18.1842C219.872 18.0021 219.633 17.8449 219.353 17.7125C219.073 17.5801 218.711 17.5139 218.267 17.5139C217.724 17.5139 217.304 17.638 217.008 17.8863C216.728 18.118 216.588 18.4159 216.588 18.78C216.588 19.0117 216.662 19.2269 216.81 19.4255C216.958 19.6241 217.263 19.8062 217.724 19.9717C218.185 20.1372 218.884 20.311 219.822 20.4931C220.942 20.6917 221.83 20.9896 222.489 21.3868C223.147 21.784 223.616 22.2475 223.896 22.7771C224.192 23.2902 224.34 23.8446 224.34 24.4404C224.34 25.2183 224.11 25.9135 223.649 26.5259C223.188 27.1217 222.513 27.5934 221.625 27.941C220.752 28.272 219.674 28.4375 218.39 28.4375Z" fill="#212337"/>
</svg>
