<svg width="56" height="52" viewBox="0 0 56 52" fill="none" xmlns="http://www.w3.org/2000/svg">
<path d="M3.67911 1.72199C3.62525 1.74482 3.59497 1.78375 3.58388 1.84043C3.39518 1.89666 3.203 1.63926 3.01356 1.84575C2.40989 1.98114 2.31276 2.44524 2.29675 2.95871C2.2564 4.39372 2.45054 5.8077 2.73222 7.20863C3.7426 12.2264 5.75301 16.8016 8.59629 21.0675C13.5578 28.5131 20.4196 33.4467 28.6807 36.5597C32.5101 38.0037 36.5193 38.7524 40.5655 39.3147C42.9442 39.6441 45.3336 39.8295 47.72 40.0734C47.8092 40.0448 47.8953 40.0148 47.9867 39.9853C48.079 40.0379 48.1965 40.071 48.2506 40.1481C48.2506 40.1481 48.2506 40.1481 48.2501 40.1533C48.291 40.2153 48.2 40.2722 48.1146 40.2644C47.3125 40.7547 46.4307 41.0601 45.5358 41.3179C44.9205 41.4952 44.34 41.7118 43.8308 42.104C42.506 42.4741 41.8966 43.3815 42.081 44.6242C44.7711 45.156 47.1724 44.2745 49.5422 43.1775C50.423 42.77 51.3291 42.423 52.2303 42.0628C54.3888 41.2005 54.0279 41.2042 54.3168 39.3355C54.3809 38.9163 54.347 38.4892 54.2713 38.0703C54.243 37.916 54.2027 37.7763 54.0616 37.6871C54.11 37.2064 53.769 36.9851 53.4267 36.7869C52.4119 36.1976 51.3916 35.6204 50.3689 35.0367C50.2342 34.7925 49.9956 34.6901 49.7507 34.5976C49.6261 34.3472 49.384 34.2486 49.1481 34.1402C49.0879 33.9479 48.899 33.8843 48.7635 33.7705C46.9262 32.2144 45.2917 30.4742 43.9579 28.4581C43.858 28.3059 43.7465 28.163 43.6386 28.0163C43.5148 27.8405 43.3714 27.6397 43.1368 27.7133C42.9607 27.7697 42.8501 28.0064 42.8762 28.1616C42.9909 28.8557 42.6622 29.5072 42.7141 30.1874C42.7365 30.4915 42.8824 30.7588 43.0344 31.0289C44.1927 33.1163 45.6891 34.941 47.3743 36.617C47.526 36.7672 47.705 36.8971 47.8185 37.0717C47.9531 37.2759 47.7982 37.4018 47.6164 37.483C47.4283 37.329 47.2326 37.3204 47.0249 37.4388C46.8276 37.3333 46.6243 37.2451 46.4041 37.3832C46.3716 37.3304 46.3322 37.3253 46.2872 37.3648C46.0994 37.2582 45.911 37.1894 45.7003 37.3064C45.5578 37.2602 45.4184 37.1954 45.2711 37.176C43.6554 36.961 42.0362 36.7699 40.4226 36.5341C38.9557 36.323 37.5011 36.0647 36.0405 35.8237C35.6639 35.7134 35.2898 35.5896 34.9116 35.4949C31.2227 34.5553 27.7033 33.1843 24.3977 31.2876C23.2174 30.6108 22.0586 29.8984 20.8908 29.2019C20.7495 28.9403 20.4951 28.8489 20.2403 28.7501C20.1127 28.4983 19.87 28.405 19.6295 28.3108C19.5249 28.0603 19.2853 27.9883 19.0715 27.879C19.0175 27.7094 18.8843 27.6347 18.7222 27.5959C18.6991 27.5347 18.6558 27.506 18.5884 27.5065C18.5248 27.318 18.3402 27.2527 18.2113 27.1364C17.5637 26.5535 16.8158 26.0885 16.2405 25.4257C16.1377 25.4446 15.9095 25.3432 16.0984 25.6119C16.2226 25.795 16.2019 25.8528 16.1269 25.8661C16.0629 25.8752 15.96 25.8541 15.8798 25.8469C13.8955 23.9413 12.1646 21.8202 10.5706 19.5848C10.442 19.3634 10.3125 19.1398 10.1839 18.9184C9.41556 17.5987 8.64556 16.2746 7.87804 14.9571C7.88664 14.8939 7.87337 14.8389 7.84426 14.7949C7.82312 14.7654 7.79624 14.7405 7.7628 14.7182C7.77651 14.6155 7.735 14.5387 7.64785 14.4866C7.66593 14.3823 7.62525 14.3077 7.53591 14.2564C7.55618 14.1513 7.51467 14.0744 7.42232 14.0218C7.44342 13.9189 7.40847 13.8396 7.31393 13.7878C7.33941 13.6832 7.30227 13.6047 7.20856 13.5551L7.20691 13.5507C7.23102 13.4491 7.19607 13.3698 7.10537 13.3216L7.10153 13.318C7.07397 13.2385 7.03985 13.1614 7.00355 13.0851L6.99805 13.0771C7.02217 12.9756 6.99325 12.899 6.90089 12.8464L6.8954 12.8384C6.91951 12.7369 6.8906 12.6603 6.79824 12.6077L6.79275 12.5997C6.82124 12.4965 6.78712 12.4194 6.69476 12.3668L6.69311 12.3624C6.71941 12.26 6.68748 12.182 6.59513 12.1294L6.59347 12.125C6.61977 12.0226 6.58702 11.9425 6.49602 11.8869C6.24217 11.1353 5.98832 10.3838 5.73446 9.63226C5.47802 9.28413 5.41761 8.8595 5.30418 8.45989C5.3383 8.42452 5.37821 8.40445 5.41758 8.38959C5.48102 8.36564 5.54533 8.36386 5.6179 8.38396C5.56352 8.07454 5.5332 7.75604 5.33989 7.48906C5.27403 7.41394 5.22047 7.33168 5.20161 7.22881C5.24861 7.31355 5.29206 7.40213 5.33989 7.48906C5.3432 7.38533 5.33421 7.28874 5.22873 7.24107C5.28804 7.0937 5.25324 6.96186 5.16318 6.83588C5.20236 6.74111 5.19176 6.66012 5.10267 6.59627C5.11638 6.49361 5.10822 6.3992 5.01883 6.32796C5.03458 6.27702 5.032 6.2305 4.99905 6.18295C4.99857 5.87068 4.93656 5.57414 4.79959 5.2909C4.78866 5.07006 4.7843 4.84674 4.6604 4.65105C4.7044 4.50946 4.64607 4.3815 4.59951 4.2516C4.55774 3.38001 4.3559 2.52135 4.48314 1.60095C4.17112 1.70124 3.89883 1.47658 3.67911 1.72199ZM46.2183 37.5333C46.2175 37.5311 46.2175 37.5311 46.2145 37.5297C46.2131 37.5328 46.2161 37.5341 46.2161 37.5341C46.2131 37.5328 46.2115 37.5284 46.2115 37.5284L46.2145 37.5297C46.2167 37.5289 46.218 37.5259 46.2172 37.5237C46.2189 37.5281 46.2167 37.5289 46.2183 37.5333ZM6.2498 12.6047C6.25422 12.6231 6.25728 12.6444 6.26253 12.6649C6.26005 12.6583 6.25621 12.6548 6.25456 12.6504C6.24795 12.6329 6.23998 12.6184 6.23555 12.6001C6.23638 12.6023 6.24158 12.6028 6.2498 12.6047ZM7.86516 14.9495C7.86297 14.9503 7.85995 14.9489 7.86078 14.9511C7.85422 14.9536 7.84848 14.9583 7.84109 14.9586L7.81839 14.9646L7.85995 14.9489C7.86214 14.9481 7.86132 14.9459 7.86268 14.9429C7.86132 14.9459 7.86214 14.9481 7.86516 14.9495ZM6.15506 12.5855C6.18189 12.5904 6.20571 12.5939 6.22817 12.6004C6.23614 12.6149 6.24275 12.6324 6.25072 12.6469C6.23094 12.6143 6.19968 12.5911 6.15506 12.5855ZM6.29203 12.7563C6.29947 12.7759 6.30909 12.7948 6.31351 12.8131C6.31215 12.8161 6.31434 12.8153 6.31298 12.8183C6.30773 12.7978 6.29947 12.7759 6.29203 12.7563ZM3.2215 3.30951C3.22068 3.30732 3.21902 3.30295 3.21684 3.30377L3.21518 3.2994C3.21737 3.29857 3.21572 3.2942 3.21708 3.29118C3.22175 3.29692 3.22121 3.30212 3.2215 3.30951ZM3.24268 3.69646C3.23913 3.70029 3.23777 3.70331 3.23943 3.70768C3.24297 3.70384 3.2405 3.69728 3.24268 3.69646ZM5.07932 7.13C5.0607 7.12703 5.04072 7.12707 5.01938 7.13013C5.02483 7.11807 5.02808 7.10685 5.03353 7.09479C5.04806 7.1068 5.06478 7.11799 5.07932 7.13ZM4.99914 6.44788C4.98538 6.41808 4.98475 6.38332 4.99588 6.34662C4.99588 6.34662 4.99588 6.34662 4.99671 6.34881C4.98995 6.38386 4.99058 6.41861 4.99914 6.44788Z" fill="#749B3F"/>
</svg>
