<svg width="70" height="48" viewBox="0 0 70 48" fill="none" xmlns="http://www.w3.org/2000/svg">
<rect x="0.448461" y="0.413793" width="68.6897" height="47.1724" rx="2.89655" fill="white" stroke="#F3F3F3" stroke-width="0.827586"/>
<path fill-rule="evenodd" clip-rule="evenodd" d="M21.1026 17.9119C20.597 18.5176 19.7879 18.9954 18.9789 18.9271C18.8778 18.1082 19.2739 17.238 19.7374 16.7006C20.243 16.0778 21.1279 15.6342 21.8442 15.6001C21.9285 16.4532 21.5999 17.2892 21.1026 17.9119ZM21.8356 19.0891C21.1228 19.0476 20.4725 19.3061 19.9472 19.5149C19.6091 19.6492 19.3229 19.763 19.1051 19.763C18.8607 19.763 18.5626 19.6432 18.2279 19.5086C17.7894 19.3322 17.288 19.1306 16.7623 19.1403C15.5571 19.1573 14.4363 19.8483 13.8211 20.9488C12.557 23.1498 13.4924 26.4085 14.7144 28.2C15.3127 29.0872 16.0291 30.0597 16.9729 30.0256C17.3882 30.0097 17.6869 29.8814 17.996 29.7486C18.3519 29.5958 18.7216 29.437 19.2989 29.437C19.8562 29.437 20.2097 29.5916 20.5491 29.7401C20.8718 29.8813 21.1817 30.0168 21.6418 30.0085C22.6193 29.9915 23.2346 29.1213 23.8329 28.2341C24.4786 27.2819 24.7624 26.3526 24.8054 26.2116L24.8105 26.1953C24.8095 26.1942 24.8015 26.1905 24.7874 26.184C24.5716 26.084 22.9217 25.3194 22.9059 23.2692C22.89 21.5483 24.2145 20.6765 24.423 20.5392L24.423 20.5392L24.4231 20.5391C24.4358 20.5308 24.4443 20.5252 24.4481 20.5223C23.6054 19.2597 22.2907 19.1232 21.8356 19.0891ZM28.603 29.915V16.6155H33.533C36.0781 16.6155 37.8563 18.3899 37.8563 20.9832C37.8563 23.5766 36.0444 25.3681 33.4656 25.3681H30.6424V29.915H28.603ZM30.6424 18.3558H32.9936C34.7634 18.3558 35.7747 19.3113 35.7747 20.9919C35.7747 22.6724 34.7634 23.6364 32.9852 23.6364H30.6424V18.3558ZM44.5897 28.3196C44.0503 29.3604 42.862 30.0172 41.581 30.0172C39.6849 30.0172 38.3618 28.8741 38.3618 27.1509C38.3618 25.4447 39.6427 24.4637 42.0108 24.3187L44.5559 24.1651V23.4314C44.5559 22.348 43.8565 21.7594 42.6092 21.7594C41.581 21.7594 40.831 22.2969 40.6793 23.1158H38.8421C38.9011 21.3926 40.5023 20.1386 42.6682 20.1386C45.0026 20.1386 46.5195 21.3755 46.5195 23.295V29.9149H44.6318V28.3196H44.5897ZM42.1289 28.439C41.0417 28.439 40.3507 27.9101 40.3507 27.0997C40.3507 26.2637 41.0165 25.7774 42.289 25.7006L44.556 25.5556V26.3063C44.556 27.5518 43.511 28.439 42.1289 28.439ZM52.7811 30.4353C51.9637 32.7643 51.0282 33.532 49.0393 33.532C48.8876 33.532 48.382 33.515 48.264 33.4808V31.8856C48.3904 31.9026 48.7022 31.9197 48.8623 31.9197C49.7641 31.9197 50.2697 31.5358 50.5815 30.5377L50.767 29.9491L47.3117 20.2666H49.4438L51.8457 28.1235H51.8878L54.2896 20.2666H56.3628L52.7811 30.4353Z" fill="black"/>
</svg>
