<svg width="139" height="40" viewBox="0 0 139 40" fill="none" xmlns="http://www.w3.org/2000/svg">
<path d="M137.693 35.3871C137.693 37.5188 135.93 39.2454 133.75 39.2454H4.71755C2.53838 39.2454 0.769531 37.5188 0.769531 35.3871V4.61824C0.769531 2.4876 2.53838 0.754883 4.71755 0.754883H133.749C135.93 0.754883 137.692 2.4876 137.692 4.61824L137.693 35.3871Z" fill="black"/>
<path d="M133.333 0.801256C135.708 0.801256 137.64 2.68501 137.64 5.00001V35C137.64 37.315 135.708 39.1988 133.333 39.1988H5.12821C2.75385 39.1988 0.821795 37.315 0.821795 35V5.00001C0.821795 2.68501 2.75385 0.801256 5.12821 0.801256H133.333ZM133.333 6.83814e-06H5.12821C2.30897 6.83814e-06 0 2.25126 0 5.00001V35C0 37.7488 2.30897 40 5.12821 40H133.333C136.153 40 138.462 37.7488 138.462 35V5.00001C138.462 2.25126 136.153 6.83814e-06 133.333 6.83814e-06Z" fill="#A6A6A6"/>
<path d="M30.8998 19.7838C30.87 16.5608 33.6064 14.9928 33.7315 14.9198C32.1818 12.7168 29.7798 12.4158 28.9356 12.3918C26.9182 12.1848 24.9613 13.5688 23.9336 13.5688C22.8854 13.5688 21.3028 12.4118 19.5972 12.4458C17.4023 12.4788 15.349 13.7178 14.2228 15.6418C11.8987 19.5648 13.6321 25.3298 15.8587 28.5008C16.9726 30.0538 18.2741 31.7878 19.9777 31.7268C21.6444 31.6598 22.2669 30.6908 24.2782 30.6908C26.271 30.6908 26.8556 31.7268 28.5931 31.6878C30.3818 31.6598 31.508 30.1278 32.5828 28.5608C33.87 26.7808 34.3869 25.0278 34.4074 24.9378C34.3654 24.9238 30.9336 23.6468 30.8998 19.7838Z" fill="white"/>
<path d="M27.6177 10.3058C28.5141 9.2128 29.1274 7.7258 28.9572 6.2168C27.6598 6.2728 26.0372 7.0918 25.1028 8.1608C24.2762 9.1028 23.5377 10.6468 23.7285 12.0988C25.1859 12.2048 26.6823 11.3818 27.6177 10.3058Z" fill="white"/>
<path d="M55.0206 31.5038H52.6914L51.4155 27.5948H46.9806L45.7652 31.5038H43.4976L47.8914 18.1958H50.6052L55.0206 31.5038ZM51.0309 25.9548L49.877 22.4798C49.755 22.1248 49.5263 21.2888 49.1888 19.9728H49.1478C49.0135 20.5388 48.797 21.3748 48.4996 22.4798L47.3663 25.9548H51.0309Z" fill="white"/>
<path d="M66.3207 26.5879C66.3207 28.2199 65.8684 29.5099 64.9638 30.4569C64.1535 31.2999 63.1474 31.7209 61.9464 31.7209C60.65 31.7209 59.7187 31.2669 59.1515 30.3589H59.1105V35.4139H56.9238V25.0669C56.9238 24.0409 56.8961 22.9879 56.8428 21.9079H58.7659L58.8879 23.4289H58.9289C59.6582 22.2829 60.7648 21.7109 62.25 21.7109C63.411 21.7109 64.3802 22.1579 65.1556 23.0529C65.933 23.9489 66.3207 25.1269 66.3207 26.5879ZM64.093 26.6659C64.093 25.7319 63.8776 24.9619 63.4448 24.3559C62.972 23.7239 62.3371 23.4079 61.5412 23.4079C61.0017 23.4079 60.5115 23.5839 60.0735 23.9309C59.6346 24.2809 59.3474 24.7379 59.213 25.3039C59.1453 25.5679 59.1115 25.7839 59.1115 25.9539V27.5539C59.1115 28.2519 59.331 28.8409 59.77 29.3219C60.2089 29.8029 60.7792 30.0429 61.4807 30.0429C62.3043 30.0429 62.9453 29.7329 63.4038 29.1149C63.8633 28.4959 64.093 27.6799 64.093 26.6659Z" fill="white"/>
<path d="M77.6405 26.5879C77.6405 28.2199 77.1882 29.5099 76.2826 30.4569C75.4733 31.2999 74.4672 31.7209 73.2661 31.7209C71.9697 31.7209 71.0384 31.2669 70.4723 30.3589H70.4313V35.4139H68.2446V25.0669C68.2446 24.0409 68.2169 22.9879 68.1636 21.9079H70.0867L70.2087 23.4289H70.2497C70.9779 22.2829 72.0846 21.7109 73.5708 21.7109C74.7308 21.7109 75.7 22.1579 76.4774 23.0529C77.2518 23.9489 77.6405 25.1269 77.6405 26.5879ZM75.4128 26.6659C75.4128 25.7319 75.1964 24.9619 74.7636 24.3559C74.2908 23.7239 73.6579 23.4079 72.861 23.4079C72.3205 23.4079 71.8313 23.5839 71.3923 23.9309C70.9533 24.2809 70.6672 24.7379 70.5328 25.3039C70.4661 25.5679 70.4313 25.7839 70.4313 25.9539V27.5539C70.4313 28.2519 70.6508 28.8409 71.0877 29.3219C71.5266 29.8019 72.0969 30.0429 72.8005 30.0429C73.6241 30.0429 74.2651 29.7329 74.7236 29.1149C75.1831 28.4959 75.4128 27.6799 75.4128 26.6659Z" fill="white"/>
<path d="M90.2968 27.772C90.2968 28.904 89.8937 29.825 89.0845 30.536C88.1953 31.313 86.9573 31.701 85.3665 31.701C83.8978 31.701 82.7204 31.425 81.8291 30.872L82.3358 29.095C83.2958 29.661 84.3491 29.945 85.4968 29.945C86.3204 29.945 86.9614 29.763 87.4219 29.401C87.8804 29.039 88.1091 28.553 88.1091 27.947C88.1091 27.407 87.9204 26.952 87.5419 26.583C87.1655 26.214 86.5368 25.871 85.6588 25.554C83.2691 24.685 82.0753 23.412 82.0753 21.738C82.0753 20.644 82.4937 19.747 83.3317 19.049C84.1665 18.35 85.2804 18.001 86.6732 18.001C87.9153 18.001 88.9471 18.212 89.7706 18.633L89.224 20.371C88.4547 19.963 87.585 19.759 86.6117 19.759C85.8424 19.759 85.2414 19.944 84.8106 20.312C84.4465 20.641 84.264 21.042 84.264 21.517C84.264 22.043 84.4722 22.478 84.8906 22.82C85.2547 23.136 85.9163 23.478 86.8763 23.847C88.0506 24.308 88.9132 24.847 89.4681 25.465C90.0209 26.081 90.2968 26.852 90.2968 27.772Z" fill="white"/>
<path d="M97.5266 23.5081H95.1163V28.1671C95.1163 29.3521 95.5409 29.9441 96.3922 29.9441C96.783 29.9441 97.1071 29.9111 97.3635 29.8451L97.424 31.4641C96.9932 31.6211 96.426 31.7001 95.7235 31.7001C94.8599 31.7001 94.185 31.4431 93.6978 30.9301C93.2127 30.4161 92.9686 29.5541 92.9686 28.3431V23.5061H91.5327V21.9061H92.9686V20.1491L95.1163 19.5171V21.9061H97.5266V23.5081Z" fill="white"/>
<path d="M108.402 26.6269C108.402 28.1019 107.969 29.3129 107.105 30.2599C106.2 31.2349 104.998 31.7209 103.499 31.7209C102.055 31.7209 100.905 31.2539 100.048 30.3199C99.1904 29.3859 98.7617 28.2069 98.7617 26.7859C98.7617 25.2989 99.2027 24.0809 100.088 23.1339C100.971 22.1859 102.163 21.7119 103.661 21.7119C105.105 21.7119 106.267 22.1789 107.144 23.1139C107.983 24.0209 108.402 25.1919 108.402 26.6269ZM106.133 26.6959C106.133 25.8109 105.939 25.0519 105.546 24.4189C105.088 23.6529 104.432 23.2709 103.583 23.2709C102.704 23.2709 102.037 23.6539 101.578 24.4189C101.185 25.0529 100.991 25.8239 100.991 26.7359C100.991 27.6209 101.185 28.3799 101.578 29.0119C102.051 29.7779 102.711 30.1599 103.564 30.1599C104.399 30.1599 105.054 29.7699 105.527 28.9919C105.93 28.3469 106.133 27.5799 106.133 26.6959Z" fill="white"/>
<path d="M115.509 23.7829C115.293 23.7439 115.062 23.7239 114.82 23.7239C114.051 23.7239 113.456 24.0069 113.038 24.5739C112.673 25.0739 112.491 25.7059 112.491 26.4689V31.5039H110.305L110.326 24.9299C110.326 23.8239 110.298 22.8169 110.244 21.9089H112.148L112.228 23.7449H112.289C112.52 23.1139 112.884 22.6059 113.382 22.2249C113.869 21.8819 114.395 21.7109 114.963 21.7109C115.165 21.7109 115.347 21.7249 115.509 21.7499V23.7829Z" fill="white"/>
<path d="M125.289 26.2519C125.289 26.6339 125.263 26.9559 125.209 27.2189H118.649C118.674 28.1669 118.991 28.8919 119.6 29.3919C120.153 29.8389 120.868 30.0629 121.746 30.0629C122.717 30.0629 123.604 29.9119 124.4 29.6089L124.743 31.0889C123.812 31.4849 122.712 31.6819 121.444 31.6819C119.917 31.6819 118.719 31.2439 117.848 30.3689C116.978 29.4939 116.542 28.3189 116.542 26.8449C116.542 25.3979 116.947 24.1929 117.758 23.2319C118.608 22.2059 119.755 21.6929 121.199 21.6929C122.618 21.6929 123.692 22.2059 124.421 23.2319C124.998 24.0469 125.289 25.0549 125.289 26.2519ZM123.204 25.6989C123.218 25.0669 123.075 24.5209 122.779 24.0599C122.4 23.4669 121.819 23.1709 121.036 23.1709C120.321 23.1709 119.74 23.4599 119.296 24.0399C118.932 24.5009 118.715 25.0539 118.649 25.6979H123.204V25.6989Z" fill="white"/>
<path d="M50.3087 10.0092C50.3087 11.1862 49.9466 12.0722 49.2235 12.6672C48.5538 13.2162 47.602 13.4912 46.3692 13.4912C45.7579 13.4912 45.2348 13.4652 44.7969 13.4132V6.98219C45.3682 6.89219 45.9835 6.84619 46.6482 6.84619C47.8225 6.84619 48.7076 7.09519 49.3046 7.59319C49.9733 8.15619 50.3087 8.96119 50.3087 10.0092ZM49.1753 10.0382C49.1753 9.27519 48.9682 8.69019 48.5538 8.28219C48.1394 7.87519 47.5343 7.67119 46.7374 7.67119C46.3989 7.67119 46.1107 7.69319 45.8717 7.73919V12.6282C46.0041 12.6482 46.2461 12.6572 46.5979 12.6572C47.4205 12.6572 48.0553 12.4342 48.5025 11.9882C48.9497 11.5422 49.1753 10.8922 49.1753 10.0382Z" fill="white"/>
<path d="M56.3174 11.037C56.3174 11.762 56.1051 12.356 55.6805 12.822C55.2354 13.301 54.6456 13.54 53.9092 13.54C53.1995 13.54 52.6343 13.311 52.2128 12.851C51.7923 12.392 51.582 11.813 51.582 11.115C51.582 10.385 51.7984 9.78605 52.2333 9.32105C52.6682 8.85605 53.2528 8.62305 53.9892 8.62305C54.699 8.62305 55.2692 8.85205 55.701 9.31105C56.1113 9.75705 56.3174 10.333 56.3174 11.037ZM55.2025 11.071C55.2025 10.636 55.1061 10.263 54.9143 9.95205C54.6887 9.57605 54.3677 9.38805 53.9502 9.38805C53.5184 9.38805 53.1902 9.57605 52.9646 9.95205C52.7718 10.263 52.6764 10.642 52.6764 11.09C52.6764 11.525 52.7728 11.898 52.9646 12.209C53.1974 12.585 53.5215 12.773 53.94 12.773C54.3502 12.773 54.6723 12.582 54.9041 12.199C55.1031 11.882 55.2025 11.506 55.2025 11.071Z" fill="white"/>
<path d="M64.3752 8.71924L62.8624 13.4332H61.8778L61.2511 11.3862C61.0922 10.8752 60.9629 10.3672 60.8624 9.86324H60.8429C60.7496 10.3812 60.6204 10.8882 60.4542 11.3862L59.7886 13.4332H58.7927L57.3701 8.71924H58.4747L59.0214 10.9602C59.1537 11.4902 59.2624 11.9952 59.3496 12.4732H59.3691C59.4491 12.0792 59.5814 11.5772 59.7681 10.9702L60.4542 8.72024H61.3301L61.9875 10.9222C62.1465 11.4592 62.2758 11.9762 62.3752 12.4742H62.405C62.4778 11.9892 62.5876 11.4722 62.7332 10.9222L63.3199 8.72024H64.3752V8.71924Z" fill="white"/>
<path d="M69.9474 13.4331H68.8725V10.7331C68.8725 9.90112 68.5484 9.48512 67.8982 9.48512C67.5792 9.48512 67.3218 9.59912 67.1218 9.82812C66.9238 10.0571 66.8233 10.3271 66.8233 10.6361V13.4321H65.7484V10.0661C65.7484 9.65212 65.7351 9.20312 65.7095 8.71712H66.6541L66.7043 9.45412H66.7341C66.8592 9.22512 67.0459 9.03612 67.291 8.88512C67.5823 8.70912 67.9084 8.62012 68.2654 8.62012C68.7166 8.62012 69.092 8.76212 69.3905 9.04712C69.7618 9.39612 69.9474 9.91712 69.9474 10.6091V13.4331Z" fill="white"/>
<path d="M72.9117 13.4332H71.8379V6.55615H72.9117V13.4332Z" fill="white"/>
<path d="M79.2398 11.037C79.2398 11.762 79.0275 12.356 78.6029 12.822C78.1577 13.301 77.567 13.54 76.8316 13.54C76.1208 13.54 75.5557 13.311 75.1352 12.851C74.7146 12.392 74.5044 11.813 74.5044 11.115C74.5044 10.385 74.7208 9.78605 75.1557 9.32105C75.5906 8.85605 76.1752 8.62305 76.9105 8.62305C77.6213 8.62305 78.1905 8.85205 78.6234 9.31105C79.0336 9.75705 79.2398 10.333 79.2398 11.037ZM78.1239 11.071C78.1239 10.636 78.0275 10.263 77.8357 9.95205C77.6111 9.57605 77.289 9.38805 76.8726 9.38805C76.4398 9.38805 76.1116 9.57605 75.887 9.95205C75.6941 10.263 75.5988 10.642 75.5988 11.09C75.5988 11.525 75.6952 11.898 75.887 12.209C76.1198 12.585 76.4439 12.773 76.8623 12.773C77.2726 12.773 77.5936 12.582 77.8254 12.199C78.0254 11.882 78.1239 11.506 78.1239 11.071Z" fill="white"/>
<path d="M84.4424 13.433H83.4772L83.3972 12.89H83.3675C83.0372 13.323 82.5665 13.54 81.9552 13.54C81.4988 13.54 81.1296 13.397 80.8516 13.113C80.5993 12.855 80.4731 12.534 80.4731 12.153C80.4731 11.577 80.7193 11.138 81.2147 10.834C81.709 10.53 82.4044 10.381 83.2998 10.388V10.3C83.2998 9.67905 82.9654 9.36905 82.2957 9.36905C81.8188 9.36905 81.3983 9.48605 81.0352 9.71805L80.8167 9.03005C81.266 8.75905 81.8208 8.62305 82.4752 8.62305C83.7388 8.62305 84.3726 9.27305 84.3726 10.573V12.309C84.3726 12.78 84.3962 13.155 84.4424 13.433ZM83.3265 11.813V11.086C82.1408 11.066 81.548 11.383 81.548 12.036C81.548 12.282 81.6157 12.466 81.7542 12.589C81.8926 12.712 82.069 12.773 82.2793 12.773C82.5152 12.773 82.7357 12.7 82.9367 12.555C83.1388 12.409 83.2629 12.224 83.309 11.997C83.3203 11.946 83.3265 11.884 83.3265 11.813Z" fill="white"/>
<path d="M90.5495 13.4332H89.5956L89.5454 12.6762H89.5156C89.211 13.2522 88.692 13.5402 87.9628 13.5402C87.3802 13.5402 86.8951 13.3172 86.5105 12.8712C86.1259 12.4252 85.9341 11.8462 85.9341 11.1352C85.9341 10.3722 86.1423 9.75415 86.5607 9.28215C86.9659 8.84215 87.4623 8.62215 88.053 8.62215C88.7023 8.62215 89.1566 8.83515 89.4151 9.26215H89.4356V6.55615H90.5115V12.1632C90.5115 12.6222 90.5238 13.0452 90.5495 13.4332ZM89.4356 11.4452V10.6592C89.4356 10.5232 89.4254 10.4132 89.4059 10.3292C89.3454 10.0772 89.2151 9.86515 89.0172 9.69415C88.8172 9.52315 88.5761 9.43715 88.2982 9.43715C87.8971 9.43715 87.5833 9.59215 87.3525 9.90315C87.1238 10.2142 87.0079 10.6112 87.0079 11.0962C87.0079 11.5622 87.1177 11.9402 87.3382 12.2312C87.571 12.5412 87.8848 12.6962 88.2777 12.6962C88.6305 12.6962 88.9125 12.5672 89.1269 12.3082C89.3341 12.0692 89.4356 11.7812 89.4356 11.4452Z" fill="white"/>
<path d="M99.7427 11.037C99.7427 11.762 99.5304 12.356 99.1058 12.822C98.6607 13.301 98.0719 13.54 97.3345 13.54C96.6258 13.54 96.0607 13.311 95.6381 12.851C95.2176 12.392 95.0073 11.813 95.0073 11.115C95.0073 10.385 95.2237 9.78605 95.6586 9.32105C96.0935 8.85605 96.6781 8.62305 97.4155 8.62305C98.1242 8.62305 98.6955 8.85205 99.1263 9.31105C99.5366 9.75705 99.7427 10.333 99.7427 11.037ZM98.6289 11.071C98.6289 10.636 98.5324 10.263 98.3407 9.95205C98.114 9.57605 97.794 9.38805 97.3755 9.38805C96.9448 9.38805 96.6166 9.57605 96.3899 9.95205C96.1971 10.263 96.1017 10.642 96.1017 11.09C96.1017 11.525 96.1981 11.898 96.3899 12.209C96.6227 12.585 96.9468 12.773 97.3653 12.773C97.7755 12.773 98.0986 12.582 98.3304 12.199C98.5284 11.882 98.6289 11.506 98.6289 11.071Z" fill="white"/>
<path d="M105.522 13.4331H104.448V10.7331C104.448 9.90112 104.124 9.48512 103.473 9.48512C103.154 9.48512 102.896 9.59912 102.697 9.82812C102.498 10.0571 102.399 10.3271 102.399 10.6361V13.4321H101.323V10.0661C101.323 9.65212 101.311 9.20312 101.285 8.71712H102.229L102.279 9.45412H102.309C102.435 9.22512 102.622 9.03612 102.866 8.88512C103.158 8.70912 103.483 8.62012 103.841 8.62012C104.291 8.62012 104.667 8.76212 104.965 9.04712C105.337 9.39612 105.522 9.91712 105.522 10.6091V13.4331Z" fill="white"/>
<path d="M112.756 9.50392H111.572V11.7939C111.572 12.3759 111.782 12.6669 112.199 12.6669C112.392 12.6669 112.552 12.6509 112.678 12.6179L112.705 13.4129C112.493 13.4909 112.214 13.5299 111.871 13.5299C111.446 13.5299 111.116 13.4039 110.877 13.1519C110.637 12.8999 110.518 12.4759 110.518 11.8809V9.50392H109.811V8.71892H110.518V7.85492L111.571 7.54492V8.71792H112.755V9.50392H112.756Z" fill="white"/>
<path d="M118.446 13.4332H117.37V10.7532C117.37 9.90815 117.046 9.48515 116.397 9.48515C115.898 9.48515 115.558 9.73015 115.371 10.2202C115.339 10.3232 115.321 10.4492 115.321 10.5972V13.4322H114.247V6.55615H115.321V9.39715H115.341C115.68 8.88015 116.165 8.62215 116.794 8.62215C117.239 8.62215 117.607 8.76415 117.899 9.04915C118.263 9.40415 118.446 9.93215 118.446 10.6302V13.4332Z" fill="white"/>
<path d="M124.316 10.8533C124.316 11.0413 124.301 11.1993 124.276 11.3283H121.052C121.066 11.7943 121.22 12.1493 121.519 12.3953C121.791 12.6153 122.143 12.7253 122.574 12.7253C123.051 12.7253 123.486 12.6513 123.878 12.5023L124.046 13.2303C123.587 13.4243 123.048 13.5213 122.423 13.5213C121.675 13.5213 121.085 13.3063 120.658 12.8763C120.229 12.4463 120.017 11.8693 120.017 11.1453C120.017 10.4343 120.215 9.84226 120.614 9.37026C121.03 8.86626 121.594 8.61426 122.304 8.61426C123 8.61426 123.528 8.86626 123.885 9.37026C124.173 9.77026 124.316 10.2653 124.316 10.8533ZM123.29 10.5823C123.298 10.2713 123.227 10.0033 123.082 9.77726C122.895 9.48626 122.611 9.34026 122.226 9.34026C121.876 9.34026 121.589 9.48226 121.371 9.76726C121.192 9.99426 121.087 10.2653 121.052 10.5823H123.29Z" fill="white"/>
</svg>
