<svg width="139" height="40" viewBox="0 0 139 40" fill="none" xmlns="http://www.w3.org/2000/svg">
<path d="M133.611 40H5.58258C2.76723 40 0.461426 37.7487 0.461426 35V5C0.461426 2.25125 2.76723 2.11397e-06 5.58258 2.11397e-06H133.611C136.427 2.11397e-06 138.733 2.25125 138.733 5V35C138.733 37.7487 136.427 40 133.611 40Z" fill="black"/>
<path d="M133.611 0.801252C135.983 0.801252 137.912 2.685 137.912 5V35C137.912 37.315 135.983 39.1988 133.611 39.1988H5.58258C3.21149 39.1988 1.28209 37.315 1.28209 35V5C1.28209 2.685 3.21149 0.801252 5.58258 0.801252H133.611ZM133.611 2.11397e-06H5.58258C2.76723 2.11397e-06 0.461426 2.25125 0.461426 5V35C0.461426 37.7487 2.76723 40 5.58258 40H133.611C136.427 40 138.733 37.7487 138.733 35V5C138.733 2.25125 136.427 2.11397e-06 133.611 2.11397e-06Z" fill="#A6A6A6"/>
<path d="M49.0284 10.244C49.0284 11.079 48.7723 11.7477 48.2679 12.2465C47.6879 12.8377 46.9325 13.1352 46.0069 13.1352C45.1222 13.1352 44.3668 12.8327 43.7472 12.2365C43.1262 11.6315 42.8164 10.889 42.8164 10.0002C42.8164 9.11148 43.1262 8.36898 43.7472 7.76899C44.3668 7.16774 45.1222 6.86523 46.0069 6.86523C46.4473 6.86523 46.8672 6.95398 47.268 7.11898C47.6674 7.28523 47.9926 7.51023 48.2282 7.78773L47.693 8.31524C47.2821 7.84149 46.7226 7.60774 46.0069 7.60774C45.3616 7.60774 44.8021 7.82773 44.3271 8.27148C43.8573 8.71648 43.6217 9.29273 43.6217 10.0002C43.6217 10.7077 43.8573 11.289 44.3271 11.734C44.8021 12.1727 45.3616 12.3977 46.0069 12.3977C46.6918 12.3977 47.268 12.1727 47.7225 11.729C48.0221 11.4352 48.1923 11.0302 48.2372 10.5127H46.0069V9.79023H48.9823C49.0181 9.94648 49.0284 10.0977 49.0284 10.244Z" fill="white" stroke="white" stroke-width="0.133858" stroke-miterlimit="10"/>
<path d="M53.7482 7.73869H50.9533V9.63869H53.4729V10.3612H50.9533V12.2612H53.7482V12.9974H50.1621V7.00244H53.7482V7.73869Z" fill="white" stroke="white" stroke-width="0.133858" stroke-miterlimit="10"/>
<path d="M57.0802 12.9974H56.289V7.73869H54.5747V7.00244H58.7958V7.73869H57.0802V12.9974Z" fill="white" stroke="white" stroke-width="0.133858" stroke-miterlimit="10"/>
<path d="M61.8501 12.9974V7.00244H62.64V12.9974H61.8501Z" fill="white" stroke="white" stroke-width="0.133858" stroke-miterlimit="10"/>
<path d="M66.1413 12.9974H65.3564V7.73869H63.6357V7.00244H67.862V7.73869H66.1413V12.9974Z" fill="white" stroke="white" stroke-width="0.133858" stroke-miterlimit="10"/>
<path d="M75.8537 12.2265C75.2481 12.8327 74.4978 13.1352 73.6029 13.1352C72.7029 13.1352 71.9526 12.8327 71.3471 12.2265C70.7428 11.6215 70.4419 10.879 70.4419 10.0002C70.4419 9.12148 70.7428 8.37898 71.3471 7.77398C71.9526 7.16773 72.7029 6.86523 73.6029 6.86523C74.4927 6.86523 75.243 7.16773 75.8486 7.77898C76.458 8.38898 76.7588 9.12648 76.7588 10.0002C76.7588 10.879 76.458 11.6215 75.8537 12.2265ZM71.9322 11.724C72.3879 12.1727 72.9423 12.3977 73.6029 12.3977C74.2584 12.3977 74.8179 12.1727 75.2686 11.724C75.7231 11.2752 75.9535 10.699 75.9535 10.0002C75.9535 9.30148 75.7231 8.72524 75.2686 8.27649C74.8179 7.82774 74.2584 7.60273 73.6029 7.60273C72.9423 7.60273 72.3879 7.82774 71.9322 8.27649C71.4777 8.72524 71.2472 9.30148 71.2472 10.0002C71.2472 10.699 71.4777 11.2752 71.9322 11.724Z" fill="white" stroke="white" stroke-width="0.133858" stroke-miterlimit="10"/>
<path d="M77.8687 12.9974V7.00244H78.8289L81.8145 11.6649H81.8491L81.8145 10.5124V7.00244H82.6044V12.9974H81.7799L78.6535 8.10494H78.6189L78.6535 9.26244V12.9974H77.8687Z" fill="white" stroke="white" stroke-width="0.133858" stroke-miterlimit="10"/>
<path d="M70.2471 21.7526C67.8415 21.7526 65.8762 23.5401 65.8762 26.0064C65.8762 28.4526 67.8415 30.2589 70.2471 30.2589C72.6579 30.2589 74.6232 28.4526 74.6232 26.0064C74.6232 23.5401 72.6579 21.7526 70.2471 21.7526ZM70.2471 28.5839C68.9272 28.5839 67.7916 27.5201 67.7916 26.0064C67.7916 24.4726 68.9272 23.4276 70.2471 23.4276C71.5671 23.4276 72.7079 24.4726 72.7079 26.0064C72.7079 27.5201 71.5671 28.5839 70.2471 28.5839ZM60.7103 21.7526C58.2995 21.7526 56.3394 23.5401 56.3394 26.0064C56.3394 28.4526 58.2995 30.2589 60.7103 30.2589C63.1198 30.2589 65.0812 28.4526 65.0812 26.0064C65.0812 23.5401 63.1198 21.7526 60.7103 21.7526ZM60.7103 28.5839C59.389 28.5839 58.2496 27.5201 58.2496 26.0064C58.2496 24.4726 59.389 23.4276 60.7103 23.4276C62.0302 23.4276 63.1659 24.4726 63.1659 26.0064C63.1659 27.5201 62.0302 28.5839 60.7103 28.5839ZM49.3618 23.0564V24.8639H53.7826C53.6533 25.8739 53.3076 26.6164 52.7776 27.1339C52.1323 27.7589 51.1273 28.4526 49.3618 28.4526C46.6412 28.4526 44.5108 26.3089 44.5108 23.6526C44.5108 20.9964 46.6412 18.8526 49.3618 18.8526C50.8328 18.8526 51.9032 19.4139 52.6931 20.1414L53.9977 18.8676C52.8928 17.8376 51.4231 17.0464 49.3618 17.0464C45.631 17.0464 42.4956 20.0101 42.4956 23.6526C42.4956 27.2951 45.631 30.2589 49.3618 30.2589C51.3782 30.2589 52.8928 29.6139 54.0835 28.4039C55.3036 27.2126 55.6839 25.5376 55.6839 24.1851C55.6839 23.7651 55.648 23.3789 55.584 23.0564H49.3618ZM95.7671 24.4576C95.4074 23.5064 94.2974 21.7526 92.0364 21.7526C89.7959 21.7526 87.9305 23.4764 87.9305 26.0064C87.9305 28.3889 89.7767 30.2589 92.2515 30.2589C94.2526 30.2589 95.4074 29.0676 95.8824 28.3739L94.3972 27.4076C93.9018 28.1151 93.227 28.5839 92.2515 28.5839C91.2823 28.5839 90.5871 28.1501 90.1415 27.2951L95.9681 24.9414L95.7671 24.4576ZM89.8266 25.8739C89.7767 24.2339 91.1312 23.3939 92.1017 23.3939C92.8622 23.3939 93.5074 23.7651 93.7225 24.2964L89.8266 25.8739ZM85.0908 30.0001H87.0061V17.5001H85.0908V30.0001ZM81.9541 22.7001H81.8901C81.4599 22.2026 80.6393 21.7526 79.5997 21.7526C77.418 21.7526 75.4234 23.6226 75.4234 26.0201C75.4234 28.4039 77.418 30.2589 79.5997 30.2589C80.6393 30.2589 81.4599 29.8051 81.8901 29.2926H81.9541V29.9026C81.9541 31.5289 81.0643 32.4026 79.6291 32.4026C78.4589 32.4026 77.733 31.5776 77.4334 30.8839L75.7677 31.5626C76.2479 32.6901 77.5192 34.0776 79.6291 34.0776C81.8747 34.0776 83.7696 32.7876 83.7696 29.6489V22.0114H81.9541V22.7001ZM79.7635 28.5839C78.4436 28.5839 77.3387 27.5051 77.3387 26.0201C77.3387 24.5214 78.4436 23.4276 79.7635 23.4276C81.0643 23.4276 82.0898 24.5214 82.0898 26.0201C82.0898 27.5051 81.0643 28.5839 79.7635 28.5839ZM104.734 17.5001H100.153V30.0001H102.064V25.2639H104.734C106.856 25.2639 108.936 23.7651 108.936 21.3814C108.936 18.9989 106.851 17.5001 104.734 17.5001ZM104.784 23.5251H102.064V19.2389H104.784C106.21 19.2389 107.025 20.3951 107.025 21.3814C107.025 22.3489 106.21 23.5251 104.784 23.5251ZM116.592 21.7289C115.212 21.7289 113.777 22.3239 113.187 23.6426L114.882 24.3364C115.247 23.6426 115.918 23.4176 116.627 23.4176C117.618 23.4176 118.623 23.9989 118.638 25.0251V25.1564C118.293 24.9614 117.553 24.6726 116.642 24.6726C114.817 24.6726 112.956 25.6539 112.956 27.4851C112.956 29.1601 114.452 30.2389 116.133 30.2389C117.418 30.2389 118.127 29.6726 118.573 29.0139H118.638V29.9801H120.483V25.1851C120.483 22.9689 118.788 21.7289 116.592 21.7289ZM116.362 28.5789C115.737 28.5789 114.866 28.2764 114.866 27.5201C114.866 26.5526 115.952 26.1814 116.892 26.1814C117.733 26.1814 118.127 26.3626 118.638 26.6014C118.488 27.7589 117.468 28.5789 116.362 28.5789ZM127.205 22.0026L125.009 27.4214H124.944L122.674 22.0026H120.614L124.024 29.5751L122.078 33.7889H124.074L129.33 22.0026H127.205ZM109.986 30.0001H111.901V17.5001H109.986V30.0001Z" fill="white"/>
<path d="M11.1493 7.53869C10.8484 7.84619 10.6743 8.32494 10.6743 8.94494V31.0599C10.6743 31.6799 10.8484 32.1587 11.1493 32.4662L11.2236 32.5337L23.9163 20.1462V19.8537L11.2236 7.46619L11.1493 7.53869Z" fill="url(#paint0_linear_86_447)"/>
<path d="M28.1427 24.2773L23.9165 20.1461V19.8536L28.1479 15.7223L28.2426 15.7761L33.2537 18.5598C34.6837 19.3498 34.6837 20.6498 33.2537 21.4448L28.2426 24.2236L28.1427 24.2773Z" fill="url(#paint1_linear_86_447)"/>
<path d="M28.2426 24.224L23.9165 20.0002L11.1494 32.4665C11.6244 32.954 12.399 33.0127 13.2798 32.5252L28.2426 24.224Z" fill="url(#paint2_linear_86_447)"/>
<path d="M28.2426 15.7763L13.2798 7.475C12.399 6.9925 11.6244 7.05125 11.1494 7.53875L23.9165 20L28.2426 15.7763Z" fill="url(#paint3_linear_86_447)"/>
<defs>
<linearGradient id="paint0_linear_86_447" x1="22.7894" y1="31.2902" x2="6.01179" y2="14.1061" gradientUnits="userSpaceOnUse">
<stop stop-color="#00A0FF"/>
<stop offset="0.0066" stop-color="#00A1FF"/>
<stop offset="0.2601" stop-color="#00BEFF"/>
<stop offset="0.5122" stop-color="#00D2FF"/>
<stop offset="0.7604" stop-color="#00DFFF"/>
<stop offset="1" stop-color="#00E3FF"/>
</linearGradient>
<linearGradient id="paint1_linear_86_447" x1="35.1159" y1="19.9984" x2="10.3326" y2="19.9984" gradientUnits="userSpaceOnUse">
<stop stop-color="#FFE000"/>
<stop offset="0.4087" stop-color="#FFBD00"/>
<stop offset="0.7754" stop-color="#FFA500"/>
<stop offset="1" stop-color="#FF9C00"/>
</linearGradient>
<linearGradient id="paint2_linear_86_447" x1="25.8901" y1="17.7041" x2="3.13837" y2="-5.59896" gradientUnits="userSpaceOnUse">
<stop stop-color="#FF3A44"/>
<stop offset="1" stop-color="#C31162"/>
</linearGradient>
<linearGradient id="paint3_linear_86_447" x1="7.93568" y1="39.8238" x2="18.0954" y2="29.418" gradientUnits="userSpaceOnUse">
<stop stop-color="#32A071"/>
<stop offset="0.0685" stop-color="#2DA771"/>
<stop offset="0.4762" stop-color="#15CF74"/>
<stop offset="0.8009" stop-color="#06E775"/>
<stop offset="1" stop-color="#00F076"/>
</linearGradient>
</defs>
</svg>
