<svg width="297" height="52" viewBox="0 0 297 52" fill="none" xmlns="http://www.w3.org/2000/svg">
<path d="M26.2861 13.6797C26.2861 20.3459 20.8821 25.75 14.2158 25.75H2.14551V13.6797C2.14551 7.01343 7.54956 1.60938 14.2158 1.60938C20.8821 1.60938 26.2861 7.01343 26.2861 13.6797Z" fill="#749B3F"/>
<path d="M26.2866 37.8203C26.2866 31.1541 31.6907 25.75 38.3569 25.75H50.4272V37.8203C50.4272 44.4866 45.0232 49.8906 38.3569 49.8906C31.6907 49.8906 26.2866 44.4866 26.2866 37.8203Z" fill="#749B3F"/>
<path d="M2.14551 37.8203C2.14551 44.4866 7.54956 49.8906 14.2158 49.8906H26.2861V37.8203C26.2861 31.1541 20.8821 25.75 14.2158 25.75C7.54956 25.75 2.14551 31.1541 2.14551 37.8203Z" fill="#749B3F"/>
<path d="M50.4272 13.6797C50.4272 7.01343 45.0232 1.60938 38.3569 1.60938H26.2866V13.6797C26.2866 20.3459 31.6907 25.75 38.3569 25.75C45.0232 25.75 50.4272 20.3459 50.4272 13.6797Z" fill="#749B3F"/>
<path d="M66.2628 37.2243C66.0237 37.2243 65.8281 37.1478 65.676 36.9948C65.5238 36.8419 65.4478 36.6452 65.4478 36.4047V15.0954C65.4478 14.855 65.5238 14.6583 65.676 14.5053C65.8281 14.3523 66.0237 14.2758 66.2628 14.2758H80.8031C81.0422 14.2758 81.2378 14.3523 81.3899 14.5053C81.5421 14.6583 81.6181 14.855 81.6181 15.0954V17.882C81.6181 18.1224 81.5421 18.3191 81.3899 18.4721C81.2378 18.6251 81.0422 18.7016 80.8031 18.7016H70.5336V24.242H80.1511C80.3901 24.242 80.5858 24.3185 80.7379 24.4715C80.89 24.6245 80.9661 24.8212 80.9661 25.0616V27.8482C80.9661 28.0668 80.89 28.2526 80.7379 28.4055C80.5858 28.5585 80.3901 28.635 80.1511 28.635H70.5336V36.4047C70.5336 36.6452 70.4575 36.8419 70.3054 36.9948C70.1532 37.1478 69.9576 37.2243 69.7186 37.2243H66.2628Z" fill="#212337"/>
<path d="M84.7678 37.2243C84.5504 37.2243 84.3657 37.1478 84.2135 36.9948C84.0614 36.8419 83.9853 36.6452 83.9853 36.4047V20.9965C83.9853 20.7779 84.0614 20.5921 84.2135 20.4391C84.3657 20.2643 84.5504 20.1769 84.7678 20.1769H87.9627C88.1801 20.1769 88.3648 20.2643 88.5169 20.4391C88.6908 20.5921 88.7778 20.7779 88.7778 20.9965V22.3078C89.3211 21.6303 89.984 21.1057 90.7665 20.7342C91.5706 20.3626 92.4943 20.1769 93.5376 20.1769H94.9395C95.1568 20.1769 95.3415 20.2534 95.4937 20.4064C95.6458 20.5593 95.7219 20.7561 95.7219 20.9965V23.8159C95.7219 24.0563 95.6458 24.253 95.4937 24.406C95.3415 24.5589 95.1568 24.6354 94.9395 24.6354H92.0705C91.1142 24.6354 90.3644 24.9086 89.821 25.455C89.2776 25.9796 89.006 26.7336 89.006 27.7171V36.4047C89.006 36.6452 88.9299 36.8419 88.7778 36.9948C88.6256 37.1478 88.43 37.2243 88.1909 37.2243H84.7678Z" fill="#212337"/>
<path d="M104.874 37.5522C102.374 37.5522 100.385 36.8528 98.9074 35.454C97.4512 34.0552 96.6797 32.0227 96.5927 29.3563C96.5927 29.1814 96.5927 28.9519 96.5927 28.6678C96.5927 28.3618 96.5927 28.1214 96.5927 27.9466C96.6797 26.2637 97.06 24.8212 97.7338 23.6191C98.4075 22.3952 99.353 21.4664 100.57 20.8325C101.787 20.1769 103.211 19.849 104.841 19.849C106.667 19.849 108.188 20.2315 109.405 20.9965C110.644 21.7396 111.568 22.7668 112.176 24.0781C112.807 25.3676 113.122 26.8538 113.122 28.5367V29.2907C113.122 29.5093 113.035 29.695 112.861 29.848C112.709 30.001 112.524 30.0775 112.307 30.0775H101.646C101.646 30.0994 101.646 30.1431 101.646 30.2086C101.646 30.2524 101.646 30.2961 101.646 30.3398C101.668 31.0392 101.798 31.6839 102.037 32.274C102.298 32.8423 102.657 33.3012 103.113 33.6509C103.591 34.0006 104.156 34.1755 104.808 34.1755C105.352 34.1755 105.797 34.099 106.145 33.946C106.493 33.793 106.775 33.6072 106.993 33.3887C107.232 33.1701 107.406 32.9843 107.514 32.8313C107.71 32.6128 107.862 32.4816 107.971 32.4379C108.101 32.3724 108.297 32.3396 108.557 32.3396H111.948C112.165 32.3396 112.339 32.4051 112.47 32.5363C112.622 32.6456 112.687 32.8095 112.665 33.028C112.644 33.3777 112.459 33.8148 112.111 34.3394C111.785 34.8421 111.296 35.3447 110.644 35.8474C109.992 36.3282 109.177 36.7326 108.199 37.0604C107.243 37.3882 106.134 37.5522 104.874 37.5522ZM101.646 27.0942H108.036V27.0286C108.036 26.2418 107.905 25.5643 107.645 24.9961C107.406 24.406 107.047 23.947 106.569 23.6191C106.091 23.2913 105.515 23.1274 104.841 23.1274C104.167 23.1274 103.591 23.2913 103.113 23.6191C102.635 23.947 102.265 24.406 102.005 24.9961C101.765 25.5643 101.646 26.2418 101.646 27.0286V27.0942Z" fill="#212337"/>
<path d="M122.412 37.5522C121.064 37.5522 119.902 37.3992 118.924 37.0932C117.967 36.7654 117.185 36.372 116.576 35.913C115.989 35.454 115.544 34.995 115.24 34.5361C114.957 34.0553 114.805 33.6509 114.783 33.3231C114.761 33.0827 114.837 32.886 115.011 32.733C115.185 32.58 115.359 32.5035 115.533 32.5035H118.695C118.761 32.5035 118.826 32.5144 118.891 32.5363C118.956 32.5581 119.021 32.6128 119.087 32.7002C119.369 32.8969 119.662 33.1264 119.967 33.3887C120.271 33.6291 120.619 33.8367 121.01 34.0115C121.423 34.1864 121.934 34.2738 122.542 34.2738C123.26 34.2738 123.868 34.1317 124.368 33.8476C124.868 33.5416 125.118 33.1155 125.118 32.5691C125.118 32.1757 124.998 31.8478 124.759 31.5856C124.542 31.3233 124.118 31.0829 123.488 30.8643C122.857 30.6458 121.923 30.4053 120.684 30.1431C119.51 29.8808 118.511 29.5311 117.685 29.094C116.859 28.6569 116.239 28.1105 115.826 27.4548C115.413 26.7773 115.207 25.9686 115.207 25.0288C115.207 24.1765 115.468 23.3569 115.989 22.5701C116.533 21.7833 117.326 21.1385 118.369 20.6358C119.413 20.1113 120.717 19.849 122.281 19.849C123.477 19.849 124.52 20.002 125.411 20.308C126.324 20.5921 127.085 20.9637 127.693 21.4227C128.302 21.8598 128.758 22.3187 129.063 22.7996C129.389 23.2585 129.563 23.6629 129.584 24.0126C129.606 24.2311 129.541 24.4169 129.389 24.5699C129.236 24.7229 129.063 24.7994 128.867 24.7994H125.965C125.857 24.7994 125.759 24.7884 125.672 24.7666C125.585 24.7229 125.509 24.6682 125.444 24.6027C125.183 24.4278 124.911 24.2311 124.629 24.0126C124.368 23.7721 124.053 23.5645 123.683 23.3897C123.314 23.2148 122.836 23.1274 122.249 23.1274C121.532 23.1274 120.977 23.2913 120.586 23.6191C120.217 23.9251 120.032 24.3185 120.032 24.7994C120.032 25.1053 120.13 25.3895 120.325 25.6517C120.521 25.914 120.923 26.1544 121.532 26.373C122.14 26.5915 123.064 26.821 124.303 27.0614C125.781 27.3237 126.954 27.7171 127.824 28.2416C128.693 28.7662 129.313 29.3781 129.682 30.0775C130.073 30.755 130.269 31.4872 130.269 32.274C130.269 33.3012 129.965 34.2192 129.356 35.0278C128.747 35.8146 127.856 36.4375 126.683 36.8965C125.531 37.3336 124.107 37.5522 122.412 37.5522Z" fill="#212337"/>
<path d="M133.561 37.2243C133.322 37.2243 133.127 37.1478 132.975 36.9948C132.822 36.8419 132.746 36.6452 132.746 36.4047V14.7676C132.746 14.5272 132.822 14.3305 132.975 14.1775C133.127 14.0245 133.322 13.948 133.561 13.948H137.082C137.3 13.948 137.484 14.0245 137.637 14.1775C137.789 14.3305 137.865 14.5272 137.865 14.7676V22.1439C138.452 21.4445 139.169 20.8872 140.016 20.4719C140.864 20.0567 141.886 19.849 143.081 19.849C144.363 19.849 145.494 20.1441 146.472 20.7342C147.471 21.3024 148.254 22.1439 148.819 23.2585C149.384 24.3513 149.667 25.6845 149.667 27.2581V36.4047C149.667 36.6452 149.59 36.8419 149.438 36.9948C149.286 37.1478 149.091 37.2243 148.852 37.2243H145.298C145.081 37.2243 144.896 37.1478 144.744 36.9948C144.592 36.8419 144.516 36.6452 144.516 36.4047V27.4548C144.516 26.2965 144.233 25.4004 143.668 24.7666C143.103 24.1109 142.299 23.7831 141.255 23.7831C140.234 23.7831 139.408 24.1109 138.778 24.7666C138.169 25.4004 137.865 26.2965 137.865 27.4548V36.4047C137.865 36.6452 137.789 36.8419 137.637 36.9948C137.484 37.1478 137.3 37.2243 137.082 37.2243H133.561Z" fill="#212337"/>
<path d="M160.633 37.2243C160.394 37.2243 160.198 37.1478 160.046 36.9948C159.894 36.8419 159.818 36.6452 159.818 36.4047V15.0954C159.818 14.855 159.894 14.6583 160.046 14.5053C160.198 14.3523 160.394 14.2758 160.633 14.2758H164.186C164.426 14.2758 164.621 14.3523 164.773 14.5053C164.925 14.6583 165.002 14.855 165.002 15.0954V23.2913H173.837V15.0954C173.837 14.855 173.913 14.6583 174.065 14.5053C174.217 14.3523 174.413 14.2758 174.652 14.2758H178.205C178.444 14.2758 178.64 14.3523 178.792 14.5053C178.944 14.6583 179.02 14.855 179.02 15.0954V36.4047C179.02 36.6452 178.944 36.8419 178.792 36.9948C178.64 37.1478 178.444 37.2243 178.205 37.2243H174.652C174.413 37.2243 174.217 37.1478 174.065 36.9948C173.913 36.8419 173.837 36.6452 173.837 36.4047V27.9466H165.002V36.4047C165.002 36.6452 164.925 36.8419 164.773 36.9948C164.621 37.1478 164.426 37.2243 164.186 37.2243H160.633Z" fill="#212337"/>
<path d="M187.833 37.5522C186.681 37.5522 185.648 37.3336 184.735 36.8965C183.823 36.4375 183.094 35.8256 182.551 35.0606C182.008 34.2957 181.736 33.4433 181.736 32.5035C181.736 30.9517 182.356 29.7278 183.594 28.8317C184.855 27.9357 186.507 27.3237 188.55 26.9959L192.821 26.373V25.7829C192.821 24.9305 192.625 24.2748 192.234 23.8159C191.843 23.3569 191.158 23.1274 190.18 23.1274C189.463 23.1274 188.887 23.2695 188.452 23.5536C188.017 23.8377 187.68 24.2093 187.441 24.6682C187.267 24.9523 187.018 25.0944 186.692 25.0944H183.594C183.355 25.0944 183.171 25.0288 183.04 24.8977C182.91 24.7447 182.855 24.5699 182.877 24.3732C182.877 24.0016 183.018 23.5645 183.301 23.0618C183.583 22.5591 184.018 22.0674 184.605 21.5866C185.192 21.0839 185.942 20.6686 186.855 20.3408C187.767 20.013 188.887 19.849 190.212 19.849C191.582 19.849 192.755 20.013 193.733 20.3408C194.712 20.6686 195.494 21.1276 196.081 21.7177C196.668 22.3078 197.102 22.9963 197.385 23.7831C197.667 24.548 197.809 25.3785 197.809 26.2746V36.4047C197.809 36.6452 197.733 36.8419 197.58 36.9948C197.428 37.1478 197.233 37.2243 196.994 37.2243H193.799C193.581 37.2243 193.397 37.1478 193.244 36.9948C193.092 36.8419 193.016 36.6452 193.016 36.4047V35.1917C192.734 35.607 192.353 36.0004 191.875 36.372C191.397 36.7216 190.821 37.0058 190.147 37.2243C189.495 37.4429 188.724 37.5522 187.833 37.5522ZM189.137 34.1427C189.854 34.1427 190.495 33.9897 191.06 33.6837C191.625 33.3777 192.071 32.9078 192.397 32.274C192.723 31.6402 192.886 30.8425 192.886 29.8808V29.3235L189.854 29.8152C188.68 30.0119 187.822 30.307 187.278 30.7004C186.735 31.0938 186.463 31.5746 186.463 32.1429C186.463 32.5581 186.583 32.9188 186.822 33.2247C187.083 33.5307 187.42 33.7602 187.833 33.9132C188.246 34.0662 188.68 34.1427 189.137 34.1427Z" fill="#212337"/>
<path d="M201.886 37.2243C201.669 37.2243 201.484 37.1478 201.332 36.9948C201.18 36.8419 201.104 36.6452 201.104 36.4047V20.9965C201.104 20.7779 201.18 20.5921 201.332 20.4391C201.484 20.2643 201.669 20.1769 201.886 20.1769H205.081C205.299 20.1769 205.483 20.2643 205.636 20.4391C205.809 20.5921 205.896 20.7779 205.896 20.9965V22.3078C206.44 21.6303 207.103 21.1057 207.885 20.7342C208.689 20.3626 209.613 20.1769 210.656 20.1769H212.058C212.275 20.1769 212.46 20.2534 212.612 20.4064C212.764 20.5593 212.841 20.7561 212.841 20.9965V23.8159C212.841 24.0563 212.764 24.253 212.612 24.406C212.46 24.5589 212.275 24.6354 212.058 24.6354H209.189C208.233 24.6354 207.483 24.9086 206.94 25.455C206.396 25.9796 206.125 26.7336 206.125 27.7171V36.4047C206.125 36.6452 206.049 36.8419 205.896 36.9948C205.744 37.1478 205.549 37.2243 205.31 37.2243H201.886Z" fill="#212337"/>
<path d="M220.618 37.2243C220.292 37.2243 220.042 37.1478 219.868 36.9948C219.716 36.82 219.586 36.6233 219.477 36.4047L213.348 21.1932C213.305 21.1057 213.283 21.0074 213.283 20.8981C213.283 20.7014 213.348 20.5375 213.479 20.4064C213.631 20.2534 213.805 20.1769 214 20.1769H217.163C217.445 20.1769 217.652 20.2534 217.782 20.4064C217.934 20.5593 218.032 20.7014 218.075 20.8325L222.085 31.6511L226.095 20.8325C226.161 20.7014 226.258 20.5593 226.389 20.4064C226.541 20.2534 226.747 20.1769 227.008 20.1769H230.171C230.366 20.1769 230.529 20.2534 230.66 20.4064C230.812 20.5375 230.888 20.7014 230.888 20.8981C230.888 21.0074 230.877 21.1057 230.855 21.1932L224.694 36.4047C224.607 36.6233 224.476 36.82 224.302 36.9948C224.128 37.1478 223.878 37.2243 223.552 37.2243H220.618Z" fill="#212337"/>
<path d="M239.933 37.5522C237.434 37.5522 235.445 36.8528 233.967 35.454C232.511 34.0552 231.739 32.0227 231.652 29.3563C231.652 29.1814 231.652 28.9519 231.652 28.6678C231.652 28.3618 231.652 28.1214 231.652 27.9466C231.739 26.2637 232.12 24.8212 232.793 23.6191C233.467 22.3952 234.413 21.4664 235.63 20.8325C236.847 20.1769 238.271 19.849 239.901 19.849C241.726 19.849 243.248 20.2315 244.465 20.9965C245.704 21.7396 246.627 22.7668 247.236 24.0781C247.866 25.3676 248.181 26.8538 248.181 28.5367V29.2907C248.181 29.5093 248.094 29.695 247.921 29.848C247.768 30.001 247.584 30.0775 247.366 30.0775H236.706C236.706 30.0994 236.706 30.1431 236.706 30.2086C236.706 30.2524 236.706 30.2961 236.706 30.3398C236.727 31.0392 236.858 31.6839 237.097 32.274C237.358 32.8423 237.716 33.3012 238.173 33.6509C238.651 34.0006 239.216 34.1755 239.868 34.1755C240.411 34.1755 240.857 34.099 241.205 33.946C241.552 33.793 241.835 33.6072 242.052 33.3887C242.291 33.1701 242.465 32.9843 242.574 32.8313C242.77 32.6128 242.922 32.4816 243.03 32.4379C243.161 32.3724 243.356 32.3396 243.617 32.3396H247.008C247.225 32.3396 247.399 32.4051 247.529 32.5363C247.682 32.6456 247.747 32.8095 247.725 33.028C247.703 33.3777 247.519 33.8148 247.171 34.3394C246.845 34.8421 246.356 35.3447 245.704 35.8474C245.052 36.3282 244.237 36.7326 243.259 37.0604C242.302 37.3882 241.194 37.5522 239.933 37.5522ZM236.706 27.0942H243.096V27.0286C243.096 26.2418 242.965 25.5643 242.704 24.9961C242.465 24.406 242.107 23.947 241.629 23.6191C241.15 23.2913 240.574 23.1274 239.901 23.1274C239.227 23.1274 238.651 23.2913 238.173 23.6191C237.695 23.947 237.325 24.406 237.064 24.9961C236.825 25.5643 236.706 26.2418 236.706 27.0286V27.0942Z" fill="#212337"/>
<path d="M257.472 37.5522C256.124 37.5522 254.961 37.3992 253.983 37.0932C253.027 36.7654 252.244 36.372 251.636 35.913C251.049 35.454 250.604 34.995 250.299 34.5361C250.017 34.0553 249.865 33.6509 249.843 33.3231C249.821 33.0827 249.897 32.886 250.071 32.733C250.245 32.58 250.419 32.5035 250.593 32.5035H253.755C253.82 32.5035 253.885 32.5144 253.951 32.5363C254.016 32.5581 254.081 32.6128 254.146 32.7002C254.429 32.8969 254.722 33.1264 255.026 33.3887C255.331 33.6291 255.679 33.8367 256.07 34.0115C256.483 34.1864 256.993 34.2738 257.602 34.2738C258.319 34.2738 258.928 34.1317 259.428 33.8476C259.928 33.5416 260.178 33.1155 260.178 32.5691C260.178 32.1757 260.058 31.8478 259.819 31.5856C259.602 31.3233 259.178 31.0829 258.547 30.8643C257.917 30.6458 256.983 30.4053 255.744 30.1431C254.57 29.8808 253.57 29.5311 252.744 29.094C251.918 28.6569 251.299 28.1105 250.886 27.4548C250.473 26.7773 250.267 25.9686 250.267 25.0288C250.267 24.1765 250.527 23.3569 251.049 22.5701C251.592 21.7833 252.386 21.1385 253.429 20.6358C254.472 20.1113 255.776 19.849 257.341 19.849C258.537 19.849 259.58 20.002 260.471 20.308C261.384 20.5921 262.144 20.9637 262.753 21.4227C263.362 21.8598 263.818 22.3187 264.122 22.7996C264.448 23.2585 264.622 23.6629 264.644 24.0126C264.666 24.2311 264.6 24.4169 264.448 24.5699C264.296 24.7229 264.122 24.7994 263.927 24.7994H261.025C260.917 24.7994 260.819 24.7884 260.732 24.7666C260.645 24.7229 260.569 24.6682 260.504 24.6027C260.243 24.4278 259.971 24.2311 259.689 24.0126C259.428 23.7721 259.113 23.5645 258.743 23.3897C258.374 23.2148 257.895 23.1274 257.309 23.1274C256.591 23.1274 256.037 23.2913 255.646 23.6191C255.276 23.9251 255.092 24.3185 255.092 24.7994C255.092 25.1053 255.189 25.3895 255.385 25.6517C255.581 25.914 255.983 26.1544 256.591 26.373C257.2 26.5915 258.124 26.821 259.362 27.0614C260.84 27.3237 262.014 27.7171 262.883 28.2416C263.753 28.7662 264.372 29.3781 264.742 30.0775C265.133 30.755 265.329 31.4872 265.329 32.274C265.329 33.3012 265.024 34.2192 264.416 35.0278C263.807 35.8146 262.916 36.4375 261.742 36.8965C260.59 37.3336 259.167 37.5522 257.472 37.5522Z" fill="#212337"/>
<path d="M275.893 37.2243C274.545 37.2243 273.393 37.0058 272.437 36.5687C271.481 36.1097 270.753 35.4103 270.253 34.4705C269.775 33.5307 269.535 32.3505 269.535 30.9299V24.0453H266.993C266.753 24.0453 266.558 23.9688 266.406 23.8159C266.254 23.6629 266.177 23.4662 266.177 23.2257V20.9965C266.177 20.7561 266.254 20.5593 266.406 20.4064C266.558 20.2534 266.753 20.1769 266.993 20.1769H269.535V14.7676C269.535 14.5272 269.612 14.3305 269.764 14.1775C269.938 14.0245 270.133 13.948 270.35 13.948H273.545C273.785 13.948 273.98 14.0245 274.132 14.1775C274.284 14.3305 274.361 14.5272 274.361 14.7676V20.1769H278.436C278.653 20.1769 278.838 20.2534 278.99 20.4064C279.142 20.5593 279.218 20.7561 279.218 20.9965V23.2257C279.218 23.4662 279.142 23.6629 278.99 23.8159C278.838 23.9688 278.653 24.0453 278.436 24.0453H274.361V30.5365C274.361 31.367 274.502 32.0227 274.784 32.5035C275.089 32.9625 275.61 33.1919 276.349 33.1919H278.729C278.946 33.1919 279.131 33.2684 279.283 33.4214C279.435 33.5744 279.512 33.7602 279.512 33.9788V36.4047C279.512 36.6452 279.435 36.8419 279.283 36.9948C279.131 37.1478 278.946 37.2243 278.729 37.2243H275.893Z" fill="#212337"/>
<path d="M288.387 37.5522C287.04 37.5522 285.877 37.3992 284.899 37.0932C283.942 36.7654 283.16 36.372 282.551 35.913C281.965 35.454 281.519 34.995 281.215 34.5361C280.932 34.0553 280.78 33.6509 280.758 33.3231C280.737 33.0827 280.813 32.886 280.987 32.733C281.16 32.58 281.334 32.5035 281.508 32.5035H284.671C284.736 32.5035 284.801 32.5144 284.866 32.5363C284.931 32.5581 284.997 32.6128 285.062 32.7002C285.344 32.8969 285.638 33.1264 285.942 33.3887C286.246 33.6291 286.594 33.8367 286.985 34.0115C287.398 34.1864 287.909 34.2738 288.518 34.2738C289.235 34.2738 289.843 34.1317 290.343 33.8476C290.843 33.5416 291.093 33.1155 291.093 32.5691C291.093 32.1757 290.973 31.8478 290.734 31.5856C290.517 31.3233 290.093 31.0829 289.463 30.8643C288.833 30.6458 287.898 30.4053 286.659 30.1431C285.486 29.8808 284.486 29.5311 283.66 29.094C282.834 28.6569 282.215 28.1105 281.802 27.4548C281.389 26.7773 281.182 25.9686 281.182 25.0288C281.182 24.1765 281.443 23.3569 281.965 22.5701C282.508 21.7833 283.301 21.1385 284.344 20.6358C285.388 20.1113 286.692 19.849 288.257 19.849C289.452 19.849 290.495 20.002 291.386 20.308C292.299 20.5921 293.06 20.9637 293.669 21.4227C294.277 21.8598 294.734 22.3187 295.038 22.7996C295.364 23.2585 295.538 23.6629 295.559 24.0126C295.581 24.2311 295.516 24.4169 295.364 24.5699C295.212 24.7229 295.038 24.7994 294.842 24.7994H291.941C291.832 24.7994 291.734 24.7884 291.647 24.7666C291.56 24.7229 291.484 24.6682 291.419 24.6027C291.158 24.4278 290.887 24.2311 290.604 24.0126C290.343 23.7721 290.028 23.5645 289.659 23.3897C289.289 23.2148 288.811 23.1274 288.224 23.1274C287.507 23.1274 286.953 23.2913 286.561 23.6191C286.192 23.9251 286.007 24.3185 286.007 24.7994C286.007 25.1053 286.105 25.3895 286.301 25.6517C286.496 25.914 286.898 26.1544 287.507 26.373C288.115 26.5915 289.039 26.821 290.278 27.0614C291.756 27.3237 292.93 27.7171 293.799 28.2416C294.668 28.7662 295.288 29.3781 295.657 30.0775C296.048 30.755 296.244 31.4872 296.244 32.274C296.244 33.3012 295.94 34.2192 295.331 35.0278C294.723 35.8146 293.832 36.4375 292.658 36.8965C291.506 37.3336 290.082 37.5522 288.387 37.5522Z" fill="#212337"/>
</svg>
