<svg width="71" height="48" viewBox="0 0 71 48" fill="none" xmlns="http://www.w3.org/2000/svg">
<rect x="0.930883" y="0.413793" width="68.6897" height="47.1724" rx="2.89655" fill="white" stroke="#F3F3F3" stroke-width="0.827586"/>
<path fill-rule="evenodd" clip-rule="evenodd" d="M32.2056 24.3075L32.5083 22.3774L31.8341 22.3616H28.6147L30.8521 8.11816C30.859 8.07503 30.8816 8.03499 30.9145 8.00651C30.9475 7.97803 30.9897 7.9624 31.0338 7.9624H36.4621C38.2643 7.9624 39.5079 8.33886 40.1572 9.08201C40.4616 9.43064 40.6555 9.79506 40.7493 10.1959C40.8477 10.6167 40.8493 11.1193 40.7534 11.7324L40.7464 11.777V12.1699L41.0508 12.343C41.3071 12.4796 41.5109 12.6358 41.6671 12.8147C41.9275 13.1129 42.0959 13.4918 42.167 13.9408C42.2406 14.4027 42.2163 14.9525 42.0959 15.5749C41.957 16.2907 41.7325 16.9142 41.4292 17.4243C41.1503 17.8944 40.795 18.2843 40.3731 18.5864C39.9703 18.8735 39.4917 19.0915 38.9506 19.2309C38.4262 19.368 37.8284 19.4372 37.1727 19.4372H36.7503C36.4483 19.4372 36.1549 19.5464 35.9245 19.7422C35.6935 19.942 35.5408 20.2151 35.494 20.5138L35.4621 20.6876L34.9273 24.0898L34.9031 24.2146C34.8966 24.2541 34.8856 24.2738 34.8694 24.2872C34.855 24.2994 34.8342 24.3075 34.814 24.3075H32.2056Z" fill="#28356A"/>
<path fill-rule="evenodd" clip-rule="evenodd" d="M41.3394 11.8223C41.3233 11.9263 41.3047 12.0325 41.2839 12.1418C40.5681 15.8321 38.1189 17.107 34.991 17.107H33.3984C33.0158 17.107 32.6934 17.3858 32.6339 17.7647L31.5875 24.4288C31.5488 24.6777 31.7397 24.9018 31.9897 24.9018H34.8145C35.1489 24.9018 35.4331 24.6578 35.4857 24.3266L35.5135 24.1826L36.0453 20.7938L36.0795 20.6079C36.1315 20.2756 36.4164 20.0314 36.7508 20.0314H37.1732C39.91 20.0314 42.0524 18.9159 42.6786 15.6874C42.9401 14.3388 42.8048 13.2127 42.1126 12.4207C41.9032 12.182 41.6433 11.9837 41.3394 11.8223Z" fill="#298FC2"/>
<path fill-rule="evenodd" clip-rule="evenodd" d="M40.5905 11.5226C40.4811 11.4906 40.3683 11.4616 40.2525 11.4354C40.1361 11.4098 40.017 11.3872 39.8943 11.3673C39.4649 11.2977 38.9943 11.2646 38.4903 11.2646H34.2357C34.1308 11.2646 34.0313 11.2884 33.9423 11.3314C33.746 11.4261 33.6002 11.6126 33.5649 11.841L32.6597 17.5971L32.6338 17.7649C32.6933 17.386 33.0157 17.1072 33.3983 17.1072H34.9909C38.1188 17.1072 40.568 15.8316 41.2838 12.1419C41.3052 12.0327 41.3232 11.9264 41.3393 11.8224C41.1582 11.7259 40.9621 11.6434 40.7508 11.5731C40.6986 11.5557 40.6448 11.5389 40.5905 11.5226Z" fill="#22284F"/>
<path fill-rule="evenodd" clip-rule="evenodd" d="M33.5652 11.8403C33.6005 11.6119 33.7463 11.4254 33.9426 11.3313C34.0322 11.2882 34.1311 11.2644 34.236 11.2644H38.4907C38.9946 11.2644 39.4652 11.2976 39.8946 11.3673C40.0173 11.387 40.1365 11.4098 40.2529 11.4353C40.3686 11.4614 40.4814 11.4905 40.5908 11.5224C40.6451 11.5387 40.699 11.5556 40.7516 11.5724C40.9629 11.6427 41.1592 11.7258 41.3402 11.8217C41.5532 10.458 41.3384 9.52942 40.6041 8.68862C39.7944 7.76285 38.3333 7.3667 36.4634 7.3667H31.035C30.6531 7.3667 30.3272 7.6455 30.2682 8.02505L28.0073 22.415C27.9627 22.6996 28.1813 22.9565 28.4673 22.9565H31.8186L33.5652 11.8403Z" fill="#28356A"/>
<path fill-rule="evenodd" clip-rule="evenodd" d="M16.2117 28.2251H12.2539C11.983 28.2251 11.7527 28.4227 11.7104 28.6912L10.1096 38.8812C10.0778 39.0823 10.233 39.2635 10.4361 39.2635H12.3255C12.5964 39.2635 12.8267 39.0661 12.8691 38.797L13.3007 36.0485C13.3424 35.7795 13.5732 35.5819 13.8436 35.5819H15.0965C17.7036 35.5819 19.2082 34.3152 19.6013 31.8051C19.7783 30.7068 19.6087 29.844 19.0965 29.2397C18.534 28.5762 17.5363 28.2251 16.2117 28.2251ZM16.6681 31.9465C16.4517 33.3724 15.3666 33.3724 14.3175 33.3724H13.7202L14.1392 30.7093C14.1642 30.5484 14.3029 30.4299 14.465 30.4299H14.7388C15.4535 30.4299 16.1277 30.4299 16.476 30.8389C16.6839 31.0829 16.7474 31.4455 16.6681 31.9465Z" fill="#28356A"/>
<path fill-rule="evenodd" clip-rule="evenodd" d="M28.144 31.8236H26.2487C26.0872 31.8236 25.9477 31.9421 25.9229 32.103L25.8389 32.6352L25.7065 32.4424C25.2962 31.8444 24.3811 31.6445 23.468 31.6445C21.3735 31.6445 19.5847 33.2373 19.2364 35.4715C19.0553 36.5859 19.3127 37.6516 19.9425 38.3948C20.52 39.078 21.3464 39.3628 22.3296 39.3628C24.0172 39.3628 24.9529 38.2733 24.9529 38.2733L24.8684 38.8021C24.8366 39.0043 24.9918 39.1856 25.1937 39.1856H26.9008C27.1723 39.1856 27.4016 38.988 27.4443 38.719L28.4687 32.2059C28.5011 32.0054 28.3464 31.8236 28.144 31.8236ZM25.5023 35.5274C25.3194 36.6144 24.4601 37.3442 23.364 37.3442C22.8137 37.3442 22.3739 37.167 22.0913 36.8312C21.8112 36.4977 21.7049 36.023 21.7939 35.4942C21.9647 34.4164 22.8385 33.6626 23.9179 33.6626C24.4561 33.6626 24.8936 33.8423 25.1818 34.1809C25.4705 34.5231 25.5851 35.0008 25.5023 35.5274Z" fill="#28356A"/>
<path fill-rule="evenodd" clip-rule="evenodd" d="M38.0922 31.9868H36.1875C36.0058 31.9868 35.8351 32.0775 35.7322 32.2292L33.1053 36.114L31.9919 32.3807C31.9218 32.1471 31.7072 31.9868 31.4641 31.9868H29.5926C29.365 31.9868 29.2071 32.21 29.2794 32.425L31.3773 38.6062L29.4051 41.4017C29.2499 41.6219 29.4062 41.9246 29.6741 41.9246H31.5764C31.757 41.9246 31.9259 41.8363 32.0283 41.6877L38.3629 32.5068C38.5147 32.2873 38.3589 31.9868 38.0922 31.9868Z" fill="#28356A"/>
<path fill-rule="evenodd" clip-rule="evenodd" d="M44.4411 28.2251H40.4827C40.2125 28.2251 39.9822 28.4227 39.9398 28.6912L38.3391 38.8812C38.3073 39.0823 38.4625 39.2635 38.6644 39.2635H40.6957C40.8843 39.2635 41.0457 39.1253 41.0752 38.937L41.5296 36.0485C41.5712 35.7795 41.8022 35.5819 42.0725 35.5819H43.3248C45.9324 35.5819 47.4365 34.3152 47.8301 31.8051C48.0078 30.7068 47.8371 29.844 47.3249 29.2397C46.7628 28.5762 45.7658 28.2251 44.4411 28.2251ZM44.8976 31.9465C44.6817 33.3724 43.5966 33.3724 42.5468 33.3724H41.9503L42.3698 30.7093C42.3946 30.5484 42.5324 30.4299 42.695 30.4299H42.9688C43.6828 30.4299 44.3576 30.4299 44.706 30.8389C44.9138 31.0829 44.9769 31.4455 44.8976 31.9465Z" fill="#298FC2"/>
<path fill-rule="evenodd" clip-rule="evenodd" d="M56.3704 31.8236H54.4763C54.3137 31.8236 54.1754 31.9421 54.1511 32.103L54.0671 32.6352L53.9341 32.4424C53.5238 31.8444 52.6094 31.6445 51.6961 31.6445C49.6017 31.6445 47.8136 33.2373 47.4652 35.4715C47.2847 36.5859 47.541 37.6516 48.1706 38.3948C48.7494 39.078 49.5745 39.3628 50.5578 39.3628C52.2453 39.3628 53.1811 38.2733 53.1811 38.2733L53.0966 38.8021C53.0649 39.0043 53.2198 39.1856 53.4231 39.1856H55.1297C55.3999 39.1856 55.6303 38.988 55.6726 38.719L56.6974 32.2059C56.7287 32.0054 56.5735 31.8236 56.3704 31.8236ZM53.7283 35.5274C53.5466 36.6144 52.686 37.3442 51.5899 37.3442C51.0407 37.3442 50.5998 37.167 50.3172 36.8312C50.0373 36.4977 49.9319 36.023 50.0198 35.4942C50.1918 34.4164 51.0644 33.6626 52.1438 33.6626C52.682 33.6626 53.1195 33.8423 53.4077 34.1809C53.6975 34.5231 53.8121 35.0008 53.7283 35.5274Z" fill="#298FC2"/>
<path fill-rule="evenodd" clip-rule="evenodd" d="M58.4469 28.5052L56.8225 38.8817C56.7907 39.0828 56.9457 39.264 57.1477 39.264H58.7808C59.0524 39.264 59.2826 39.0666 59.3242 38.7975L60.9261 28.6081C60.958 28.4069 60.8029 28.2251 60.6009 28.2251H58.7723C58.6108 28.2256 58.4719 28.3442 58.4469 28.5052Z" fill="#298FC2"/>
</svg>
