<svg width="70" height="48" viewBox="0 0 70 48" fill="none" xmlns="http://www.w3.org/2000/svg">
<rect x="0.413793" y="0.413793" width="68.6897" height="47.1724" rx="2.89655" fill="white" stroke="#F3F3F3" stroke-width="0.827586"/>
<path d="M30.8656 32.92H26.2373L29.1322 16.1191H33.7602L30.8656 32.92Z" fill="#15195A"/>
<path d="M47.6428 16.5297C46.7299 16.1898 45.282 15.8145 43.4916 15.8145C38.9211 15.8145 35.7025 18.1021 35.6828 21.3728C35.6448 23.7859 37.9872 25.1261 39.7391 25.9307C41.5297 26.7529 42.1384 27.2896 42.1384 28.0224C42.1201 29.148 40.6914 29.6668 39.3589 29.6668C37.5111 29.6668 36.521 29.3993 35.0164 28.7731L34.4069 28.5047L33.7593 32.2761C34.8448 32.7403 36.8447 33.1522 38.9211 33.1702C43.7774 33.1702 46.939 30.918 46.9764 27.4326C46.9949 25.52 45.7581 24.0545 43.0915 22.857C41.4727 22.0883 40.4814 21.5699 40.4814 20.7834C40.5004 20.0684 41.3199 19.336 43.1472 19.336C44.6518 19.3001 45.7573 19.6396 46.5948 19.9793L47.0134 20.1577L47.6428 16.5297Z" fill="#15195A"/>
<path fill-rule="evenodd" clip-rule="evenodd" d="M55.9275 16.1191H59.5075L63.2414 32.9198H58.956C58.956 32.9198 58.5367 30.9894 58.4038 30.3995H52.4615C52.2896 30.8461 51.4901 32.9198 51.4901 32.9198H46.6338L53.5085 17.5131C53.9848 16.4227 54.8236 16.1191 55.9275 16.1191ZM55.6423 22.2673C55.6423 22.2673 54.1756 26.0028 53.7945 26.968H57.6415C57.4511 26.128 56.5747 22.1064 56.5747 22.1064L56.2512 20.6588C56.115 21.0316 55.9181 21.544 55.7852 21.8897C55.6951 22.1241 55.6345 22.2818 55.6423 22.2673Z" fill="#15195A"/>
<path fill-rule="evenodd" clip-rule="evenodd" d="M6.1836 16.1191H13.63C14.6394 16.1545 15.4584 16.4584 15.7249 17.5314L17.3428 25.2489C17.3432 25.25 17.3435 25.2511 17.3438 25.2522L17.8391 27.5758L22.3717 16.1192H27.2658L19.9909 32.9022H15.0967L10.9715 18.3038C9.54814 17.5227 7.92368 16.8945 6.10742 16.4586L6.1836 16.1191Z" fill="#15195A"/>
</svg>
